<?xml version="1.0" standalone="no"?>
<!DOCTYPE svg PUBLIC "-//W3C//DTD SVG 20010904//EN"
 "http://www.w3.org/TR/2001/REC-SVG-20010904/DTD/svg10.dtd">
<svg version="1.0" xmlns="http://www.w3.org/2000/svg"
 width="16.000000pt" height="16.000000pt" viewBox="0 0 16.000000 16.000000"
 preserveAspectRatio="xMidYMid meet">
<metadata>
Created by potrace 1.11, written by Peter Selinger 2001-2013
</metadata>
<g transform="translate(0.000000,16.000000) scale(0.002286,-0.002286)"
fill="#000000" stroke="none">
<path d="M3373 6985 c-81 -22 -126 -49 -176 -105 -85 -95 -115 -222 -93 -401
10 -80 11 -85 46 -190 27 -80 79 -189 138 -289 16 -27 -35 26 -75 78 -49 62
-192 200 -253 244 -202 143 -412 190 -552 124 -187 -89 -291 -363 -202 -537
76 -151 273 -259 522 -287 110 -13 417 -2 445 15 13 8 7 -6 -23 -53 -56 -89
-76 -216 -50 -314 28 -107 119 -216 218 -261 l52 -24 0 -534 0 -534 -638 639
c-648 649 -728 737 -831 911 -39 67 -77 152 -87 198 -11 46 -4 185 12 255 19
84 42 140 92 218 39 62 43 53 -63 155 l-70 67 -25 -29 c-14 -16 -45 -52 -69
-81 -25 -29 -50 -58 -55 -64 -6 -6 -58 -65 -116 -131 -185 -211 -462 -480
-719 -699 -63 -53 -121 -106 -128 -117 -13 -18 -8 -25 61 -94 42 -41 78 -75
81 -75 3 0 24 13 46 30 128 93 390 114 554 44 163 -69 249 -146 992 -889 579
-578 604 -605 572 -606 -34 0 -934 0 -955 1 -6 0 -21 22 -33 50 -40 88 -166
195 -256 216 -114 27 -244 4 -337 -59 -25 -16 -32 -16 -30 3 0 3 4 39 8 80 34
368 -30 645 -186 800 -66 67 -134 101 -215 107 -148 13 -349 -89 -410 -207
-124 -239 46 -592 428 -894 48 -38 87 -71 87 -73 0 -2 -35 18 -77 44 -218 134
-376 185 -572 184 -206 -1 -344 -81 -402 -234 -20 -52 -24 -79 -23 -172 0 -94
4 -119 26 -172 30 -74 59 -111 118 -151 96 -66 218 -88 375 -68 136 17 273 68
445 165 84 47 83 45 -10 -29 -282 -223 -434 -469 -434 -697 1 -72 5 -90 33
-147 52 -106 146 -176 288 -214 175 -47 316 18 423 194 31 51 83 190 95 251
20 111 24 284 11 455 l-8 98 52 -35 c28 -19 70 -40 93 -46 53 -15 161 -19 207
-7 111 28 223 118 272 218 l26 55 494 -1 c271 -1 494 -2 496 -3 4 -1 -739
-741 -1024 -1022 -215 -210 -471 -399 -604 -445 -110 -38 -399 1 -508 69 -20
13 -43 27 -50 31 -16 9 -162 -130 -162 -155 0 -9 63 -69 147 -140 203 -170
336 -291 483 -439 152 -154 215 -223 424 -472 54 -65 105 -118 113 -118 20 0
153 131 153 151 0 9 -8 27 -18 40 -42 57 -88 205 -105 345 -17 133 -7 216 39
307 92 183 196 301 866 972 l608 609 0 -536 0 -535 -47 -18 c-66 -25 -166
-126 -199 -202 -32 -71 -42 -186 -24 -261 6 -28 27 -77 46 -108 l34 -56 -88 7
c-318 28 -547 -5 -711 -102 -214 -128 -269 -318 -156 -543 105 -206 323 -260
575 -141 58 27 178 104 220 140 87 77 173 166 240 250 59 74 63 77 40 36 -159
-284 -210 -450 -198 -647 14 -227 143 -354 368 -363 185 -8 310 55 379 190 56
112 64 269 22 435 -27 104 -107 283 -178 399 -22 34 -6 18 43 -44 102 -130
227 -252 329 -320 297 -198 567 -174 693 63 125 236 62 441 -175 564 -132 69
-272 99 -474 100 -73 0 -122 -3 -265 -16 l-31 -3 34 56 c41 67 55 117 58 196
5 154 -82 299 -221 370 l-59 30 0 487 c0 267 2 489 6 492 3 3 271 -261 596
-587 591 -593 664 -673 785 -862 76 -120 99 -177 103 -263 6 -141 -32 -326
-86 -415 -16 -26 -29 -53 -29 -60 0 -15 142 -157 157 -157 10 0 30 21 103 110
25 30 55 66 66 80 177 208 243 281 388 425 179 178 232 226 521 470 44 37 84
74 88 82 7 11 -9 32 -55 79 -86 89 -91 91 -139 60 -92 -61 -300 -111 -461
-110 -90 1 -140 17 -250 82 -159 93 -294 217 -905 828 -332 331 -603 604 -603
606 0 2 238 4 529 4 l529 0 21 -47 c12 -26 39 -67 61 -92 130 -148 336 -183
505 -88 64 36 68 37 61 14 -5 -17 -18 -202 -19 -273 -5 -261 84 -515 223 -637
139 -122 389 -95 542 58 75 75 92 122 92 254 -1 92 -19 165 -67 260 -70 141
-201 294 -361 422 -96 76 -110 91 -56 59 83 -49 265 -135 330 -156 123 -40
284 -56 375 -36 105 22 173 60 227 127 52 65 64 100 76 214 29 279 -116 438
-397 437 -186 0 -358 -57 -583 -192 -21 -12 -38 -20 -38 -18 0 3 36 33 80 68
282 227 442 490 427 704 -6 86 -7 89 -36 149 -59 123 -265 229 -414 213 -32
-3 -82 -17 -112 -31 -61 -29 -144 -109 -180 -172 -29 -53 -75 -167 -81 -202
-3 -14 -7 -33 -10 -41 -19 -53 -27 -366 -12 -497 4 -35 5 -63 3 -63 -2 0 -20
11 -40 25 -20 13 -62 34 -93 46 -82 30 -213 23 -296 -17 -76 -36 -155 -113
-190 -186 l-28 -58 -536 0 -536 0 644 643 c653 651 738 729 907 828 63 37 152
75 198 85 30 7 144 7 196 0 82 -10 182 -47 257 -93 l73 -45 52 48 c29 27 67
65 84 85 l33 36 -63 51 c-34 28 -73 61 -87 74 -14 13 -59 52 -100 88 -240 207
-531 505 -764 780 -53 63 -105 118 -116 122 -13 5 -35 -11 -89 -67 -39 -40
-71 -75 -71 -78 0 -3 16 -29 35 -59 57 -85 76 -168 77 -323 0 -112 -13 -171
-58 -260 -41 -80 -88 -145 -188 -260 -68 -77 -1285 -1300 -1287 -1293 -1 1 -2
225 -3 497 l-1 494 35 16 c111 50 207 162 237 276 12 45 9 153 -4 200 -8 28
-28 74 -44 103 l-30 54 98 -8 c200 -16 365 -8 493 23 84 20 234 91 286 137
141 121 169 289 80 471 -76 154 -188 225 -341 219 -83 -3 -99 -7 -171 -34 -84
-31 -142 -63 -228 -124 -119 -86 -198 -166 -348 -356 -17 -21 -10 -3 18 45 94
161 153 307 170 419 23 150 13 279 -29 370 -42 92 -105 147 -212 187 -49 17
-213 20 -272 4z m181 -309 c88 -37 126 -177 103 -385 -8 -71 -78 -289 -128
-396 l-32 -70 -28 60 c-41 88 -85 211 -113 316 -20 76 -24 113 -23 213 2 110
4 126 30 178 43 88 110 118 191 84z m-799 -501 c93 -24 236 -101 337 -181 107
-86 262 -234 253 -242 -3 -4 -47 -5 -98 -4 -287 8 -474 47 -611 127 -54 32
-125 109 -128 139 0 11 -2 28 -3 36 -2 21 21 77 39 96 44 43 116 53 211 29z
m1679 -11 c31 -23 64 -86 61 -116 -1 -13 -3 -30 -4 -39 -2 -30 -82 -109 -144
-143 -90 -49 -209 -88 -312 -102 -27 -3 -53 -8 -56 -10 -3 -2 -78 -6 -167 -10
-117 -5 -162 -3 -162 5 0 18 169 178 270 255 102 77 230 146 320 171 69 19
159 14 194 -11z m-3396 -1700 c89 -69 175 -255 197 -428 3 -27 8 -52 10 -56 2
-3 7 -79 10 -168 5 -118 4 -162 -4 -162 -19 0 -176 168 -253 272 -117 155
-179 295 -181 408 -2 79 20 121 76 149 49 24 100 19 145 -15z m5083 13 c41
-27 69 -79 69 -126 0 -108 -72 -274 -180 -416 -87 -114 -244 -280 -257 -272
-11 7 -10 202 2 307 40 362 216 607 366 507z m-5401 -822 c86 -11 413 -125
443 -154 10 -10 -123 -68 -253 -111 -226 -76 -422 -80 -536 -9 -62 38 -81 137
-37 198 24 34 98 70 160 80 51 7 148 6 223 -4z m5825 -1 c57 -17 106 -46 123
-73 34 -57 21 -143 -28 -185 -60 -50 -201 -72 -349 -53 -88 11 -279 74 -421
139 l-45 21 75 35 c89 40 288 108 344 117 22 3 42 7 44 9 10 11 216 3 257 -10z
m-5293 -316 c11 -31 -3 -280 -23 -407 -26 -166 -112 -340 -196 -395 -48 -32
-80 -37 -125 -21 -71 24 -99 74 -93 166 7 119 75 264 194 414 71 89 221 253
232 254 4 1 9 -5 11 -11z m4565 -47 c228 -230 353 -440 366 -614 5 -77 -19
-128 -75 -155 -91 -46 -176 6 -255 155 -25 46 -69 172 -77 218 -2 17 -8 50
-11 75 -4 25 -9 54 -11 65 -11 54 -16 315 -6 315 5 0 36 -26 69 -59z m-2470
-2035 c10 -11 -168 -180 -277 -262 -179 -135 -380 -204 -484 -165 -33 13 -76
72 -81 112 -10 76 76 173 195 223 25 10 52 22 62 26 20 11 121 37 172 46 21 3
48 7 59 10 12 2 59 6 106 10 47 3 87 7 88 8 7 6 154 -1 160 -8z m513 -10 c63
-3 124 -7 135 -9 11 -3 40 -8 65 -11 120 -16 273 -73 345 -128 81 -62 107
-128 78 -200 -59 -148 -317 -98 -580 112 -77 62 -253 225 -253 235 0 5 51 11
75 8 11 -1 72 -4 135 -7z m-305 -186 c25 -61 53 -132 60 -158 48 -163 53 -195
52 -316 -2 -110 -4 -126 -30 -178 -30 -62 -56 -83 -110 -93 -113 -21 -185 78
-191 262 -3 102 15 202 64 345 39 111 96 248 104 248 2 0 25 -50 51 -110z"/>
</g>
</svg>
