<svg xmlns="http://www.w3.org/2000/svg" viewBox="0 0 633 171"><title>Logo of the Society for Early English and Norse Electronic Texts</title><path d="M161.44,148.28a12.11,12.11,0,0,1-3.63-.57h0v-.11a5.79,5.79,0,0,1,.14-.94q0-.25.2-1.54c0-.16,0-.38.09-.65l.23,0a1.06,1.06,0,0,1,.26,0,4.6,4.6,0,0,0,1,2.77,3,3,0,0,0,1.4.46l.66,0a4.43,4.43,0,0,0,1.4-.24,2.88,2.88,0,0,0,1.15-.63,5.22,5.22,0,0,0,.9-1.42,2.59,2.59,0,0,0,.19-1.08,4,4,0,0,0-.05-.69,8.72,8.72,0,0,0-.37-1.2c-.18-.48-.42-1-.7-1.61l-1.22-2.56a13.43,13.43,0,0,1-.66-1.77,4.46,4.46,0,0,1-.15-1.26,3.82,3.82,0,0,1,.42-1.81,4.24,4.24,0,0,1,1.22-1.4,5,5,0,0,1,1.4-.79,6.09,6.09,0,0,1,1.79-.26,9.43,9.43,0,0,1,3.6.75,5,5,0,0,1-.16,1.37,12.39,12.39,0,0,1-.45,1.39l-.23,0a1.15,1.15,0,0,1-.25,0,8.59,8.59,0,0,0-.34-1.68,1.74,1.74,0,0,0-.7-.91,2.17,2.17,0,0,0-1.28-.38,2.88,2.88,0,0,0-3.07,3.09,5.17,5.17,0,0,0,.23,1.52,25,25,0,0,0,1.33,2.95,20,20,0,0,1,.83,1.82q.06.14.36,1.07a9.74,9.74,0,0,1,.33,1.14,4.74,4.74,0,0,1,.06.82,3.6,3.6,0,0,1-1.3,2.91A7,7,0,0,1,161.44,148.28Z" fill="#424142"/><path d="M158.26,144.46a1.78,1.78,0,0,1,.43.05,4.36,4.36,0,0,0,1,2.76,3.05,3.05,0,0,0,1.43.48h.47a4.39,4.39,0,0,0,1.61-.23,2.91,2.91,0,0,0,1.17-.64,5.26,5.26,0,0,0,.91-1.43,2.63,2.63,0,0,0,.19-1.1,4,4,0,0,0-.05-.7,8.74,8.74,0,0,0-.37-1.21q-.27-.73-.7-1.62l-1.22-2.55a13.37,13.37,0,0,1-.66-1.77,4.39,4.39,0,0,1-.15-1.25,3.76,3.76,0,0,1,.42-1.79,4.17,4.17,0,0,1,1.21-1.38,4.93,4.93,0,0,1,1.38-.78,6,6,0,0,1,1.78-.25,9.34,9.34,0,0,1,3.58.75,6.38,6.38,0,0,1-.19,1.31,12.29,12.29,0,0,1-.44,1.38,2,2,0,0,1-.42,0,6.24,6.24,0,0,0-.3-1.65,1.78,1.78,0,0,0-.72-.94,2.21,2.21,0,0,0-1.31-.39,2.93,2.93,0,0,0-3.12,3.14,5.2,5.2,0,0,0,.23,1.53,25,25,0,0,0,1.33,3,19.72,19.72,0,0,1,.83,1.82q.06.14.36,1.07a9.82,9.82,0,0,1,.32,1.13,4.65,4.65,0,0,1,.06.81,3.54,3.54,0,0,1-1.28,2.87,7,7,0,0,1-4.58,1.44,12,12,0,0,1-3.62-.57v-.08a5.74,5.74,0,0,1,.14-.93q.05-.25.2-1.55Q158.19,144.86,158.26,144.46Z" fill="#424142"/><path d="M173.82,148.17a2.11,2.11,0,0,1-1.7-.79,3.81,3.81,0,0,1-.65-2.44,8.06,8.06,0,0,1,.5-2.56,7.67,7.67,0,0,1,1.29-2.41l.4-.52a6.39,6.39,0,0,1,1.61-1.48,3.52,3.52,0,0,1,1.92-.6,1.92,1.92,0,0,1,1.54.76,3.93,3.93,0,0,1,.62,2.48,8.35,8.35,0,0,1-1.79,5.26C176.37,147.4,175.11,148.17,173.82,148.17Zm3.64-10.11a2.21,2.21,0,0,0-1.52.86,12.46,12.46,0,0,0-2.38,4,10.09,10.09,0,0,0-.81,3.41.95.95,0,0,0,1.11,1.09,1.74,1.74,0,0,0,1.17-.57,15.4,15.4,0,0,0,3.26-7.73,1.21,1.21,0,0,0-.25-.81A.73.73,0,0,0,177.46,138.07Z" fill="#424142"/><path d="M179.3,140.61a8.27,8.27,0,0,1-1.78,5.23q-1.78,2.29-3.7,2.29a2.05,2.05,0,0,1-1.66-.77,3.74,3.74,0,0,1-.63-2.41,8,8,0,0,1,.5-2.55A7.59,7.59,0,0,1,173.3,140l.41-.52a6.32,6.32,0,0,1,1.6-1.47,3.46,3.46,0,0,1,1.89-.6,1.87,1.87,0,0,1,1.5.74A3.87,3.87,0,0,1,179.3,140.61Zm-6.6,5.78a1,1,0,0,0,1.16,1.14,1.78,1.78,0,0,0,1.21-.58,15.44,15.44,0,0,0,3.28-7.77,1.25,1.25,0,0,0-.27-.84.79.79,0,0,0-.61-.31,2.24,2.24,0,0,0-1.56.88,12.44,12.44,0,0,0-2.39,4.06A10.08,10.08,0,0,0,172.7,146.39Z" fill="#424142"/><path d="M181.86,148.15a1.12,1.12,0,0,1-.94-.44,2.9,2.9,0,0,1-.43-1.75,8.12,8.12,0,0,1,.49-2.49,11.07,11.07,0,0,1,1.45-2.83,14.85,14.85,0,0,1,1.56-2,5.54,5.54,0,0,1,1.49-1,2.62,2.62,0,0,1,1.14-.3,1.29,1.29,0,0,1,1,.48A1.64,1.64,0,0,1,188,139a.88.88,0,0,1-.21.62.67.67,0,0,1-.5.23,1.46,1.46,0,0,1-.42-.08,1.85,1.85,0,0,1-.32-.3,3.78,3.78,0,0,1-.25-.5,1.9,1.9,0,0,0-.26-.47.42.42,0,0,0-.28-.12,1.35,1.35,0,0,0-.92.53,11.32,11.32,0,0,0-1.89,3.29,10.46,10.46,0,0,0-1,3.81,1.39,1.39,0,0,0,.16.77.38.38,0,0,0,.33.14,1.68,1.68,0,0,0,1.05-.52,9.77,9.77,0,0,0,1.61-2,1.58,1.58,0,0,1,.42-.07h.2a3.2,3.2,0,0,1-.67,1.28,7.6,7.6,0,0,1-1.77,2A2.71,2.71,0,0,1,181.86,148.15Z" fill="#424142"/><path d="M186.91,139.69a1.9,1.9,0,0,1-.29-.28,3.83,3.83,0,0,1-.24-.49,2,2,0,0,0-.27-.49.47.47,0,0,0-.32-.14,1.39,1.39,0,0,0-1,.54,11.32,11.32,0,0,0-1.9,3.31,10.46,10.46,0,0,0-1,3.83,1.42,1.42,0,0,0,.16.8.43.43,0,0,0,.37.17,1.72,1.72,0,0,0,1.09-.53,9.76,9.76,0,0,0,1.62-2,2,2,0,0,1,.38-.05h.19a6,6,0,0,1-.71,1.21,7.52,7.52,0,0,1-1.75,1.95,2.65,2.65,0,0,1-1.47.55,1.06,1.06,0,0,1-.9-.42,2.84,2.84,0,0,1-.42-1.72,8,8,0,0,1,.49-2.47,11,11,0,0,1,1.44-2.81,14.7,14.7,0,0,1,1.56-1.95,5.46,5.46,0,0,1,1.48-1,2.56,2.56,0,0,1,1.12-.29,1.24,1.24,0,0,1,.95.46A1.58,1.58,0,0,1,188,139a.83.83,0,0,1-.2.59.62.62,0,0,1-.46.21A1.4,1.4,0,0,1,186.91,139.69Z" fill="#424142"/><path d="M187.88,148.17a1,1,0,0,1-.66-.18.62.62,0,0,1-.22-.49,10.37,10.37,0,0,1,1.44-3.71l2-3.86a8.36,8.36,0,0,0,.44-.93,1,1,0,0,0,.07-.27.69.69,0,0,0-.06-.21l-.33.07a5.64,5.64,0,0,0-.86.54,7.31,7.31,0,0,0-1.07,1l-.76.18a6.72,6.72,0,0,1,2.14-2.16,4,4,0,0,1,1.91-.76.64.64,0,0,1,.47.16.56.56,0,0,1,.16.41,5.72,5.72,0,0,1-.72,2.09q-.09.18-.42.91c-.5,1.1-1.05,2.16-1.63,3.15q-.28.48-.61,1.14-.18.36-.32.6a2.24,2.24,0,0,0-.39,1,.17.17,0,0,0,.06.12.18.18,0,0,0,.14.06,1,1,0,0,0,.4-.15,6.2,6.2,0,0,0,1.13-.84,6.93,6.93,0,0,0,1.16-1.34l.6,0a6.4,6.4,0,0,1-1.1,1.66,6.22,6.22,0,0,1-1.72,1.43A2.71,2.71,0,0,1,187.88,148.17Zm4.8-14.29a1,1,0,0,1-.72-.29,1.06,1.06,0,0,1-.29-.78A1.16,1.16,0,0,1,192,132a1.14,1.14,0,0,1,.84-.36,1.06,1.06,0,0,1,.77.32,1,1,0,0,1,.32.73,1.4,1.4,0,0,1-.39,1A1.19,1.19,0,0,1,192.69,133.88Z" fill="#424142"/><path d="M191,138.5a1.48,1.48,0,0,0-.39,0,5.61,5.61,0,0,0-.88.55,7.32,7.32,0,0,0-1.08,1l-.74.17a8,8,0,0,1,2.17-2.07,4,4,0,0,1,1.88-.75.6.6,0,0,1,.44.15.51.51,0,0,1,.15.37,5.66,5.66,0,0,1-.71,2.07q-.09.18-.42.91-.76,1.66-1.63,3.15-.28.48-.61,1.14-.18.36-.32.6a2.26,2.26,0,0,0-.39,1,.22.22,0,0,0,.07.16.23.23,0,0,0,.17.07,1,1,0,0,0,.43-.15,6.2,6.2,0,0,0,1.14-.84,7,7,0,0,0,1.17-1.35H192a10.55,10.55,0,0,1-1.14,1.57,6.14,6.14,0,0,1-1.71,1.42,2.66,2.66,0,0,1-1.27.41.94.94,0,0,1-.62-.17.57.57,0,0,1-.2-.45,10.3,10.3,0,0,1,1.43-3.68l2-3.86A8.32,8.32,0,0,0,191,139a1.11,1.11,0,0,0,.08-.29A.78.78,0,0,0,191,138.5Zm.72-5.7a1.1,1.1,0,0,1,.34-.79,1.09,1.09,0,0,1,.8-.35,1,1,0,0,1,.74.3,1,1,0,0,1,.3.7,1.35,1.35,0,0,1-.38.93,1.14,1.14,0,0,1-.84.24.93.93,0,0,1-.69-.28A1,1,0,0,1,191.72,132.8Z" fill="#424142"/><path d="M195.36,148.29a1.45,1.45,0,0,1-1.18-.63,3.58,3.58,0,0,1-.63-2.24,7.15,7.15,0,0,1,.19-1.47,8.24,8.24,0,0,1,.43-1.43,14.16,14.16,0,0,1,.85-1.68l1-1.42c.64-.68,1-1.06,1.07-1.13a3.67,3.67,0,0,1,.91-.59,2.36,2.36,0,0,1,1-.2,1.48,1.48,0,0,1,1.13.54,1.94,1.94,0,0,1,.48,1.34,3,3,0,0,1-.37,1.4,3.06,3.06,0,0,1-.79,1l-1.06.69a8.37,8.37,0,0,1-1,.33c-.52.16-1.19.32-2,.48a7.36,7.36,0,0,0-.38,2.28,2.14,2.14,0,0,0,.4,1.35.8.8,0,0,0,.68.34,1,1,0,0,0,.47-.11,3.24,3.24,0,0,0,.79-.56,5.9,5.9,0,0,0,.7-.85,4.86,4.86,0,0,0,.59-1.18l.23,0,.35,0a5.54,5.54,0,0,1-1.85,2.87A3,3,0,0,1,195.36,148.29Zm3.52-10.3a1.33,1.33,0,0,0-.78.38,8.26,8.26,0,0,0-1.64,2.28,10.65,10.65,0,0,0-.85,2,10.14,10.14,0,0,0,1.2-.38,6.63,6.63,0,0,0,1.23-.69,3.37,3.37,0,0,0,.69-.68,3.75,3.75,0,0,0,.59-1,3,3,0,0,0,.2-1.07.83.83,0,0,0-.2-.58A.59.59,0,0,0,198.88,138Z" fill="#424142"/><path d="M195.35,143.25a6.77,6.77,0,0,0-.42,2.33,2.17,2.17,0,0,0,.41,1.38.86.86,0,0,0,.72.35,1,1,0,0,0,.5-.11,3.28,3.28,0,0,0,.81-.57,5.92,5.92,0,0,0,.7-.86,4.89,4.89,0,0,0,.6-1.19h.18l.34,0a6,6,0,0,1-1.88,2.78,2.89,2.89,0,0,1-1.94.85,1.4,1.4,0,0,1-1.14-.61,3.52,3.52,0,0,1-.62-2.21,7.07,7.07,0,0,1,.18-1.46,8.13,8.13,0,0,1,.43-1.42,14.17,14.17,0,0,1,.85-1.68l1-1.42q1-1,1.07-1.12a3.61,3.61,0,0,1,.9-.58,2.3,2.3,0,0,1,.93-.2,1.43,1.43,0,0,1,1.09.52,1.89,1.89,0,0,1,.47,1.31,2.91,2.91,0,0,1-.36,1.38,3,3,0,0,1-.78,1l-1.05.69a8.44,8.44,0,0,1-1,.32Q196.57,143,195.35,143.25Zm.22-.65a3.74,3.74,0,0,0,1.27-.32,6.66,6.66,0,0,0,1.24-.7,3.39,3.39,0,0,0,.7-.69,3.8,3.8,0,0,0,.6-1,3,3,0,0,0,.2-1.09.88.88,0,0,0-.22-.61.64.64,0,0,0-.48-.24,1.37,1.37,0,0,0-.81.39,8.26,8.26,0,0,0-1.65,2.3A10.65,10.65,0,0,0,195.57,142.6Z" fill="#424142"/><path d="M201.6,148.1a.72.72,0,0,1-.49-.15.54.54,0,0,1-.17-.42,6,6,0,0,1,.61-1.73l.53-1.18,1.87-4.51q.36-.87.58-1.53l-.73.07h-.36l-.82,0h-.17a1.19,1.19,0,0,1,.17-.72c1.27-.06,2-.09,2.24-.12a8.65,8.65,0,0,1,.38-.95c.25-.54.51-1.2.77-2a5.73,5.73,0,0,1,.28-.68,2.94,2.94,0,0,1,.69-.07,2.68,2.68,0,0,1,.6.06l.06.25a15.63,15.63,0,0,1-1.12,2.82,4.87,4.87,0,0,0-.21.59h1.07l1.2,0a1.13,1.13,0,0,1-.11.76,9,9,0,0,1-1.36.08h-.51a2.46,2.46,0,0,0-.72.12l-2,4.93c-.23.48-.63,1.4-1.18,2.73a.37.37,0,0,0,.07.13h.13a1.44,1.44,0,0,0,.81-.42,15.13,15.13,0,0,0,2.07-2.21,1.08,1.08,0,0,1,.45.26,20.1,20.1,0,0,1-1.76,2.1,9.78,9.78,0,0,1-1.3,1,8.41,8.41,0,0,1-1,.6A1.61,1.61,0,0,1,201.6,148.1Z" fill="#424142"/><path d="M204.58,138.59h-1.13l-.83,0h-.17a1.79,1.79,0,0,1,.22-.65q1.85-.05,2.2-.09.25-.61.42-1,.37-.83.77-2a5.6,5.6,0,0,1,.27-.67,4.84,4.84,0,0,1,.65,0,2.62,2.62,0,0,1,.58.06l0,.2a20.71,20.71,0,0,1-1.12,2.79,5,5,0,0,0-.21.6l.43.06h.69l1.21,0a1.37,1.37,0,0,1-.15.69q-.5.05-1.32.05h-.51a2.72,2.72,0,0,0-.74.13l-2.07,5q-.34.72-1.18,2.73a.31.31,0,0,0,.08.18l.17,0a1.46,1.46,0,0,0,.85-.43A15.12,15.12,0,0,0,205.8,144a1.76,1.76,0,0,1,.37.27q-1.25,1.54-1.76,2a9.67,9.67,0,0,1-1.29,1,8.62,8.62,0,0,1-.94.59,1.55,1.55,0,0,1-.58.11.67.67,0,0,1-.46-.13.49.49,0,0,1-.15-.39,6.11,6.11,0,0,1,.61-1.71l.53-1.18,1.87-4.51Q204.36,139.25,204.58,138.59Z" fill="#424142"/><path d="M203.4,154.19a3.93,3.93,0,0,1-2.11-.4,1.09,1.09,0,0,1-.58-.82.64.64,0,0,1,.21-.47.67.67,0,0,1,.48-.2,1.78,1.78,0,0,1,.77.2,3.25,3.25,0,0,1,.64.56,1.44,1.44,0,0,0,.45.36,1.87,1.87,0,0,0,.65.08,4.23,4.23,0,0,0,1.56-.37,4.42,4.42,0,0,0,1.32-.77,10.43,10.43,0,0,0,1.88-1.76,5.93,5.93,0,0,0,1-1.68,10.66,10.66,0,0,0,.61-2.59,22.18,22.18,0,0,0,.2-2.69q0-.66-.06-2.43a8.32,8.32,0,0,0-.19-1.64,1.31,1.31,0,0,0-.33-.61.37.37,0,0,0-.26-.09.6.6,0,0,0-.47.24,6.21,6.21,0,0,0-.87,2.05l-.14.06a.62.62,0,0,1-.35-.15,14.21,14.21,0,0,1,.62-2.13,5,5,0,0,1,.69-1.14,2,2,0,0,1,.6-.39l.34,0c.51,0,.92.33,1.23,1a8.83,8.83,0,0,1,.61,3.62c0,.68,0,1.54-.15,2.56a19.62,19.62,0,0,1-.31,2.26q-.16.74-.21,1.08l0,0a25.77,25.77,0,0,0,1.4-2.33,11.57,11.57,0,0,0,.83-2,18.1,18.1,0,0,0,.59-2.39,9.49,9.49,0,0,0,.13-1.6q0-.32,0-.54c0-.2,0-.33,0-.37a1.59,1.59,0,0,1,.25-1,.54.54,0,0,1,.48-.2.67.67,0,0,1,.53.19.9.9,0,0,1,.17.62,15.43,15.43,0,0,1-.73,3,24.92,24.92,0,0,1-2,5.19,24.32,24.32,0,0,1-3.7,4.92,9.6,9.6,0,0,1-3,2.12A6.93,6.93,0,0,1,203.4,154.19Z" fill="#424142"/><path d="M202.77,153.09a1.47,1.47,0,0,0,.46.37,1.89,1.89,0,0,0,.67.08,4.25,4.25,0,0,0,1.58-.37,4.45,4.45,0,0,0,1.34-.78,10.37,10.37,0,0,0,1.88-1.76,6,6,0,0,0,1-1.69,10.66,10.66,0,0,0,.61-2.6,22.14,22.14,0,0,0,.2-2.7q0-.66-.06-2.43a8.27,8.27,0,0,0-.2-1.65,1.36,1.36,0,0,0-.35-.64.42.42,0,0,0-.29-.1.65.65,0,0,0-.51.25,6.22,6.22,0,0,0-.88,2.07l-.1,0a.58.58,0,0,1-.32-.14,17,17,0,0,1,.63-2.07,5,5,0,0,1,.69-1.13,1.93,1.93,0,0,1,.58-.38l.32,0q.74,0,1.18,1a8.74,8.74,0,0,1,.61,3.6q0,1-.15,2.55a19.47,19.47,0,0,1-.31,2.25q-.22,1-.24,1.27a1,1,0,0,0,.14-.19,25.72,25.72,0,0,0,1.4-2.34,11.6,11.6,0,0,0,.83-2,18.12,18.12,0,0,0,.59-2.4,9.53,9.53,0,0,0,.13-1.61q0-.32,0-.55t0-.37a1.54,1.54,0,0,1,.24-.94.49.49,0,0,1,.44-.18.62.62,0,0,1,.49.18.87.87,0,0,1,.16.58,15.6,15.6,0,0,1-.72,3,24.75,24.75,0,0,1-2,5.18,24.16,24.16,0,0,1-3.69,4.91,9.51,9.51,0,0,1-3,2.11,6.84,6.84,0,0,1-2.66.67,3.93,3.93,0,0,1-2.08-.39q-.56-.39-.56-.78a.59.59,0,0,1,.19-.44.62.62,0,0,1,.44-.18,1.72,1.72,0,0,1,.75.19A3.27,3.27,0,0,1,202.77,153.09Z" fill="#424142"/><path d="M218.67,154.53a2.48,2.48,0,0,1-1.51-.34,1.06,1.06,0,0,1-.43-.84.74.74,0,0,1,.37-.69,1.09,1.09,0,0,1,.41-.12c.31,0,.58.2.81.61a2.53,2.53,0,0,0,.27.41.91.91,0,0,0,.65.3,2.32,2.32,0,0,0,1.29-.6,7.13,7.13,0,0,0,1.22-2,23.22,23.22,0,0,0,1-2.8L224,144.2c.08-.26.15-.55.23-.86l.84-3q.34-1.15.52-1.62a.53.53,0,0,1-.27.06l-.43,0q-.32,0-1.5,0a2.91,2.91,0,0,1,0-.69A2.66,2.66,0,0,1,224,138l1.84-.06a25.54,25.54,0,0,1,1.23-3.47,8.88,8.88,0,0,1,1.28-2,5.06,5.06,0,0,1,1.53-1.22,2.3,2.3,0,0,1,1.1-.23,2,2,0,0,1,1.34.45,1.29,1.29,0,0,1,.51.95.81.81,0,0,1-.22.56.66.66,0,0,1-.49.24,1,1,0,0,1-.62-.23,1.28,1.28,0,0,1-.39-.7.93.93,0,0,0-.23-.45.65.65,0,0,0-.4-.11.88.88,0,0,0-.42.1,3,3,0,0,0-.85.76,6.34,6.34,0,0,0-.7,1.22,17.58,17.58,0,0,0-.81,2.31c-.29,1-.45,1.62-.49,1.85l.3,0,1.19,0,.4,0a.52.52,0,0,1,.06.23,1.9,1.9,0,0,1-.08.48l-2.14.11-.37,1.39L225.54,144c-.06.2-.11.37-.15.5a5.17,5.17,0,0,0-.28.89l-.94,3a20.78,20.78,0,0,1-1.24,2.88,8.75,8.75,0,0,1-1.54,2,4.59,4.59,0,0,1-1.44,1A3.35,3.35,0,0,1,218.67,154.53Z" fill="#424142"/><path d="M217.12,152.71a1.06,1.06,0,0,1,.38-.11q.43,0,.76.58a2.55,2.55,0,0,0,.28.42,1,1,0,0,0,.69.32,2.36,2.36,0,0,0,1.32-.61,7.14,7.14,0,0,0,1.24-2,23.19,23.19,0,0,0,1-2.81l1.24-4.28q.11-.39.23-.86l.84-3q.34-1.14.52-1.61h-.34l-.41,0q-.32,0-1.5,0,0-.36.08-.63l.57,0,1.84-.06a31.43,31.43,0,0,1,1.27-3.5,8.77,8.77,0,0,1,1.27-2,5,5,0,0,1,1.51-1.21,2.24,2.24,0,0,1,1.08-.23,1.9,1.9,0,0,1,1.31.44,1.23,1.23,0,0,1,.5.91.76.76,0,0,1-.2.53.61.61,0,0,1-.46.22.9.9,0,0,1-.59-.22,1.23,1.23,0,0,1-.37-.67,1,1,0,0,0-.24-.47.69.69,0,0,0-.43-.13.93.93,0,0,0-.44.1,3,3,0,0,0-.86.77,6.34,6.34,0,0,0-.71,1.23,17.53,17.53,0,0,0-.81,2.32q-.44,1.5-.49,1.86l.34,0,1.19,0,.39,0a1.76,1.76,0,0,1,0,.18,1.84,1.84,0,0,1-.08.47l-2.1.08-.42,1.42L225.49,144q-.09.3-.15.5a5.18,5.18,0,0,0-.28.9l-.94,3a20.55,20.55,0,0,1-1.24,2.87,8.65,8.65,0,0,1-1.53,2,4.51,4.51,0,0,1-1.42,1,3.28,3.28,0,0,1-1.26.2,2.42,2.42,0,0,1-1.48-.33,1,1,0,0,1-.41-.8A.69.69,0,0,1,217.12,152.71Z" fill="#424142"/><path d="M231,148.17a2.11,2.11,0,0,1-1.7-.79,3.81,3.81,0,0,1-.65-2.44,8.06,8.06,0,0,1,.5-2.56A7.67,7.67,0,0,1,230.4,140l.4-.52a6.39,6.39,0,0,1,1.61-1.48,3.52,3.52,0,0,1,1.92-.6,1.92,1.92,0,0,1,1.54.76,3.93,3.93,0,0,1,.62,2.48,8.35,8.35,0,0,1-1.79,5.26C233.51,147.4,232.25,148.17,231,148.17Zm3.64-10.11a2.21,2.21,0,0,0-1.52.86,12.46,12.46,0,0,0-2.38,4,10.09,10.09,0,0,0-.81,3.41.95.95,0,0,0,1.11,1.09,1.74,1.74,0,0,0,1.17-.57,15.4,15.4,0,0,0,3.26-7.73,1.21,1.21,0,0,0-.25-.81A.73.73,0,0,0,234.6,138.07Z" fill="#424142"/><path d="M236.45,140.61a8.27,8.27,0,0,1-1.78,5.23q-1.78,2.29-3.7,2.29a2.05,2.05,0,0,1-1.66-.77,3.74,3.74,0,0,1-.63-2.41,8,8,0,0,1,.5-2.55,7.59,7.59,0,0,1,1.28-2.39l.41-.52a6.32,6.32,0,0,1,1.6-1.47,3.46,3.46,0,0,1,1.89-.6,1.87,1.87,0,0,1,1.5.74A3.87,3.87,0,0,1,236.45,140.61Zm-6.6,5.78a1,1,0,0,0,1.16,1.14,1.78,1.78,0,0,0,1.21-.58,15.44,15.44,0,0,0,3.28-7.77,1.25,1.25,0,0,0-.27-.84.79.79,0,0,0-.61-.31,2.24,2.24,0,0,0-1.56.88,12.44,12.44,0,0,0-2.39,4.06A10.08,10.08,0,0,0,229.84,146.39Z" fill="#424142"/><path d="M238.5,148.17A.8.8,0,0,1,238,148a.44.44,0,0,1-.16-.35,1.72,1.72,0,0,1,.13-.6c.36-.88,1-2.54,1.75-4.91l.89-2.72c.06-.24.1-.4.13-.47l.08-.19s0-.11-.24-.27c-.21.2-.48.44-.72.71-.07.07-.44.57-1.15,1.52l-.56,0a5.44,5.44,0,0,1,1.14-1.77,6.56,6.56,0,0,1,1.51-1.38,2.12,2.12,0,0,1,.93-.29.89.89,0,0,1,.48.26.62.62,0,0,1,.13.4,1.9,1.9,0,0,1-.05.44,20,20,0,0,1-.56,2c-.28.86-.53,1.55-.74,2l-.66,1.56,0,.09a9.78,9.78,0,0,1,.6-1.26,25.42,25.42,0,0,1,3-4.85,2.25,2.25,0,0,1,1.61-.67,1.45,1.45,0,0,1,1,.42,1.16,1.16,0,0,1,.35.88,1.52,1.52,0,0,1-.38,1,1,1,0,0,1-.76.31.75.75,0,0,1-.59-.2,1.79,1.79,0,0,1-.21-1c-.1-.18-.2-.28-.32-.28a.61.61,0,0,0-.4.2,19,19,0,0,0-2.29,3.48,33.86,33.86,0,0,0-2.11,4.09,10.13,10.13,0,0,1-.7,1.59A.61.61,0,0,1,238.5,148.17Z" fill="#424142"/><path d="M240.58,138.5a5.15,5.15,0,0,0-.79.71q-.1.11-1.16,1.52l-.52,0a7.86,7.86,0,0,1,1.18-1.69,6.46,6.46,0,0,1,1.49-1.37,2.06,2.06,0,0,1,.91-.28.84.84,0,0,1,.44.24.57.57,0,0,1,.12.36,1.82,1.82,0,0,1-.05.43,19.88,19.88,0,0,1-.56,2q-.42,1.29-.74,2l-.66,1.56-.05.23q.18-.3.72-1.36a25.25,25.25,0,0,1,3-4.84,2.19,2.19,0,0,1,1.57-.65,1.39,1.39,0,0,1,1,.41,1.11,1.11,0,0,1,.33.84,1.47,1.47,0,0,1-.37,1,.91.91,0,0,1-.72.29.7.7,0,0,1-.55-.18,1.79,1.79,0,0,1-.2-.92q-.16-.33-.37-.33a.66.66,0,0,0-.43.22,18.87,18.87,0,0,0-2.3,3.49,33.74,33.74,0,0,0-2.12,4.09,10,10,0,0,1-.69,1.58.57.57,0,0,1-.52.22A.76.76,0,0,1,238,148a.39.39,0,0,1-.15-.31,1.66,1.66,0,0,1,.13-.58q.55-1.33,1.75-4.91l.89-2.72q.09-.36.13-.46l.08-.19Q240.84,138.7,240.58,138.5Z" fill="#424142"/><path d="M257.59,148.06h-4l-.62,0-1.09,0h-1.1l-.06-.44,1.23-.1.78-.1.94-.2a3,3,0,0,1,.08-.51c.45-2.25.76-3.86.91-4.81l.78-4.3c0-.1.09-.52.19-1.25l.42-2.14a10.6,10.6,0,0,0,.18-1.35c0-.11,0-.22,0-.33a.44.44,0,0,0-.19-.4,4,4,0,0,0-1.44-.21l-.81-.05a1,1,0,0,1,0-.53l1.59,0h1.89l1.05,0,8.91-.1.57,0h.46a7.09,7.09,0,0,1-.22,1.63,7.37,7.37,0,0,1-.33,1.25h0a.44.44,0,0,1-.35-.15,9.34,9.34,0,0,1-.16-1q0-.6-.05-.69a2.53,2.53,0,0,0-.12-.38l-.66-.06-.4,0h-.48l-.32,0h-.41l-.87.06h-3.42l-1.26,0a3.54,3.54,0,0,0-.57.09l-.42.17a2.82,2.82,0,0,1-.12.69l-.3,1.61-.27,1.5,0,.36c-.2,1-.33,1.74-.38,2.16,0,.12,0,.25,0,.38a25.93,25.93,0,0,1,3.52-.31c2.37-.13,3.64-.22,3.79-.27a1.62,1.62,0,0,0,.75-.38,8.33,8.33,0,0,0,1-1.78l.52-.09a19.32,19.32,0,0,1-.48,2.71,6.5,6.5,0,0,0-.13.68q-.05.31-.23,1c0,.18-.07.33-.09.43a3.8,3.8,0,0,1-.14.69H265l0-.1a1.29,1.29,0,0,1,0-.26,4.18,4.18,0,0,0,.06-.88,1.59,1.59,0,0,0-.25-1.07,1.72,1.72,0,0,0-1.13-.25,15.17,15.17,0,0,0-2.11.18c-.62,0-1.52.06-2.67.14l-.89.06-.24,0a3,3,0,0,0-.54,0l-.32,0c-.09.65-.19,1.14-.26,1.42-.18.7-.3,1.27-.37,1.69l-.72,3.8a2.37,2.37,0,0,0,0,.38.75.75,0,0,0,.08.3,1.4,1.4,0,0,0,.47.27,4.33,4.33,0,0,0,.92.08h.85l2.5-.11h.33a10.59,10.59,0,0,0,1.67-.15l.61-.08a6,6,0,0,0,2.86-1.13,4.83,4.83,0,0,0,1.49-2.14l.22,0,.23,0c-.06.48-.43,1.8-1.07,4-.95.06-2.26.07-4,.07l-1.86,0h-.55l-1.59.05Z" fill="#424142"/><path d="M253.66,147.27q.05-.22.11-.55.68-3.38.91-4.81l.78-4.3q0-.15.19-1.26l.42-2.13a10.58,10.58,0,0,0,.18-1.36c0-.11,0-.22,0-.33a.49.49,0,0,0-.22-.44,4.35,4.35,0,0,0-1.46-.22l-.81-.05a1.9,1.9,0,0,1,.09-.47h3.43l1.05,0,8.91-.1.57,0h.47q0,.33-.27,1.57a7.22,7.22,0,0,1-.33,1.24.51.51,0,0,1-.32-.17q-.14-.76-.15-1,0-.61-.05-.69a2.72,2.72,0,0,0-.13-.39,5,5,0,0,0-.71-.09l-.39,0h-.48l-.33,0h-.4l-.87.06h-3.42l-1.27,0a3.52,3.52,0,0,0-.58.09l-.43.18a5.78,5.78,0,0,1-.15.72l-.3,1.61-.27,1.5,0,.37q-.3,1.52-.38,2.16,0,.18,0,.38.65-.09,3.58-.25,3.57-.2,3.8-.27a1.66,1.66,0,0,0,.77-.39,8.29,8.29,0,0,0,1-1.79l.48-.06q-.11.72-.53,2.65a6.43,6.43,0,0,0-.13.69q-.05.3-.23,1c0,.19-.07.33-.09.43a3.79,3.79,0,0,1-.14.69l-.44,0v-.06a1.42,1.42,0,0,1,0-.24,4.19,4.19,0,0,0,.06-.89,1.62,1.62,0,0,0-.27-1.1,1.74,1.74,0,0,0-1.17-.27,15.09,15.09,0,0,0-2.12.18q-.94,0-2.66.14l-.89.06-.24,0a3,3,0,0,0-.54,0l-.32,0q-.2,1-.3,1.46-.27,1.07-.37,1.69l-.72,3.8a2.45,2.45,0,0,0,0,.39.79.79,0,0,0,.09.32,1.39,1.39,0,0,0,.51.3,4.31,4.31,0,0,0,.94.08h.85l2-.09.49,0h.33a10.58,10.58,0,0,0,1.68-.15l.61-.08a6,6,0,0,0,2.88-1.14,4.86,4.86,0,0,0,1.51-2.16h.18l.22,0q-.14.62-1.1,3.95-1.35,0-3.94,0l-1.86,0h-.54l-1.59.05-1.15,0h-4l-.62,0-1.09,0h-1.1v-.39l1.18-.05.79-.1Z" fill="#424142"/><path d="M275.69,148.17a.66.66,0,0,1-.45-.14.46.46,0,0,1-.16-.36,3.21,3.21,0,0,1,.13-.67c.21-.57.36-.94.45-1.11s.2-.45.34-.82q.12-.32.48-1.1a5.44,5.44,0,0,1-.48.66,18.67,18.67,0,0,1-2.44,2.46A9,9,0,0,1,272,148a4,4,0,0,1-1.06.22,1.82,1.82,0,0,1-.71-.11,1.3,1.3,0,0,1-.53-.54,1.84,1.84,0,0,1-.15-.85,5.36,5.36,0,0,1,.37-1.82,9.61,9.61,0,0,1,1.27-2.51,12.42,12.42,0,0,1,2.17-2.24,9.32,9.32,0,0,1,2-1.21,5.41,5.41,0,0,1,2.07-.51,2.91,2.91,0,0,1,.55.05,2.45,2.45,0,0,1,.5.16,2.1,2.1,0,0,1,.1-.31,1.21,1.21,0,0,1,.32-.52,4.48,4.48,0,0,1,.55,0,1.09,1.09,0,0,1,.44.09l.07.19a.66.66,0,0,1-.07.26,5,5,0,0,0-.16.48l-.1.26-.84,2.27c-.36,1-.67,1.85-.93,2.45a17.51,17.51,0,0,0-.69,1.85,6.89,6.89,0,0,1-.54,1.36l0,.12a.63.63,0,0,0,.12.14,7.33,7.33,0,0,0,.83-.68c.63-.63,1-1,1.13-1.18l.25-.31a.94.94,0,0,1,.34.27,8.3,8.3,0,0,1-1.15,1.41,6.37,6.37,0,0,1-1.46,1.22A2.06,2.06,0,0,1,275.69,148.17Zm1.23-9.05a2.09,2.09,0,0,0-.86.16,6.42,6.42,0,0,0-1.49,1,10.65,10.65,0,0,0-1.76,2,12.8,12.8,0,0,0-1.2,2.08,5.05,5.05,0,0,0-.48,1.71,1,1,0,0,0,.18.67.57.57,0,0,0,.46.21l.48,0a2,2,0,0,0,.53-.21c.09-.05.44-.28,1-.7,1.07-1,1.66-1.63,1.8-1.78a11.23,11.23,0,0,0,1-1.35,13.37,13.37,0,0,0,.66-1.19l.33-.87a7.15,7.15,0,0,0,.17-.87.93.93,0,0,0-.28-.64A.86.86,0,0,0,276.92,139.12Z" fill="#424142"/><path d="M278.47,138.63a1.72,1.72,0,0,0,.17-.34,1.18,1.18,0,0,1,.31-.5l.52,0a1,1,0,0,1,.42.09l0,.15a.67.67,0,0,1-.06.23q0,.08-.17.48l-.1.25-.84,2.27q-.53,1.54-.93,2.45a17.5,17.5,0,0,0-.69,1.86,6.83,6.83,0,0,1-.53,1.35l-.05.12s0,.11.13.2a4.56,4.56,0,0,0,.9-.69q1-1,1.13-1.18l.25-.3a2.64,2.64,0,0,1,.26.27,12.45,12.45,0,0,1-1.14,1.35,6.31,6.31,0,0,1-1.45,1.21,2,2,0,0,1-.94.27.62.62,0,0,1-.42-.12.41.41,0,0,1-.14-.32,3.2,3.2,0,0,1,.13-.66q.32-.84.44-1.1t.34-.83q.13-.34.52-1.19a7.15,7.15,0,0,0-.61.71,18.56,18.56,0,0,1-2.43,2.45,8.89,8.89,0,0,1-1.51.85,4,4,0,0,1-1,.22,1.79,1.79,0,0,1-.68-.1,1.24,1.24,0,0,1-.51-.52,1.81,1.81,0,0,1-.14-.83,5.29,5.29,0,0,1,.36-1.8,9.52,9.52,0,0,1,1.26-2.5,12.31,12.31,0,0,1,2.16-2.23,9.21,9.21,0,0,1,2-1.21,5.34,5.34,0,0,1,2-.51,2.84,2.84,0,0,1,.54.05A2.36,2.36,0,0,1,278.47,138.63Zm-6.2,8.33a2,2,0,0,0,.55-.22q.14-.08,1-.7,1.6-1.56,1.81-1.79a11.15,11.15,0,0,0,1-1.36,13.44,13.44,0,0,0,.67-1.19l.33-.88a7.82,7.82,0,0,0,.18-.89,1,1,0,0,0-.3-.67.9.9,0,0,0-.64-.19,2.12,2.12,0,0,0-.88.17,6.46,6.46,0,0,0-1.5,1,10.67,10.67,0,0,0-1.76,2.05,12.77,12.77,0,0,0-1.2,2.09,5.06,5.06,0,0,0-.48,1.73,1.05,1.05,0,0,0,.2.7.63.63,0,0,0,.5.23Z" fill="#424142"/><path d="M281.29,148.17a.8.8,0,0,1-.52-.13.44.44,0,0,1-.16-.35,1.72,1.72,0,0,1,.13-.6c.36-.88,1-2.54,1.75-4.91l.89-2.72c.06-.24.1-.4.13-.47l.08-.19s0-.11-.24-.27c-.21.2-.48.44-.72.71-.07.07-.44.57-1.15,1.52l-.56,0a5.44,5.44,0,0,1,1.14-1.77,6.56,6.56,0,0,1,1.51-1.38,2.12,2.12,0,0,1,.93-.29.89.89,0,0,1,.48.26.62.62,0,0,1,.13.4,1.9,1.9,0,0,1-.05.44,20,20,0,0,1-.56,2c-.28.86-.53,1.55-.74,2l-.66,1.56,0,.09a9.78,9.78,0,0,1,.6-1.26,25.42,25.42,0,0,1,3-4.85,2.25,2.25,0,0,1,1.61-.67,1.45,1.45,0,0,1,1,.42,1.16,1.16,0,0,1,.35.88,1.52,1.52,0,0,1-.38,1,1,1,0,0,1-.76.31.75.75,0,0,1-.59-.2,1.79,1.79,0,0,1-.21-1c-.1-.18-.2-.28-.32-.28a.61.61,0,0,0-.4.2,19,19,0,0,0-2.29,3.48,33.86,33.86,0,0,0-2.11,4.09,10.13,10.13,0,0,1-.7,1.59A.61.61,0,0,1,281.29,148.17Z" fill="#424142"/><path d="M283.38,138.5a5.15,5.15,0,0,0-.79.71q-.1.11-1.16,1.52l-.52,0a7.86,7.86,0,0,1,1.18-1.69,6.46,6.46,0,0,1,1.49-1.37,2.06,2.06,0,0,1,.91-.28.84.84,0,0,1,.44.24.57.57,0,0,1,.12.36,1.82,1.82,0,0,1-.05.43,19.88,19.88,0,0,1-.56,2q-.42,1.29-.74,2l-.66,1.56-.05.23q.18-.3.72-1.36a25.25,25.25,0,0,1,3-4.84,2.19,2.19,0,0,1,1.57-.65,1.39,1.39,0,0,1,1,.41,1.11,1.11,0,0,1,.33.84,1.47,1.47,0,0,1-.37,1,.91.91,0,0,1-.72.29.7.7,0,0,1-.55-.18,1.79,1.79,0,0,1-.2-.92q-.16-.33-.37-.33a.66.66,0,0,0-.43.22,18.87,18.87,0,0,0-2.3,3.49,33.74,33.74,0,0,0-2.12,4.09,10,10,0,0,1-.69,1.58.57.57,0,0,1-.52.22.76.76,0,0,1-.48-.12.39.39,0,0,1-.15-.31,1.66,1.66,0,0,1,.13-.58q.55-1.33,1.75-4.91l.89-2.72q.09-.36.13-.46l.08-.19Q283.63,138.7,283.38,138.5Z" fill="#424142"/><path d="M288.64,148.21a.48.48,0,0,1-.37-.13.45.45,0,0,1-.12-.33,30.24,30.24,0,0,1,2-5.26c.41-.94.85-2,1.29-3.22.79-2.11,1.4-3.63,1.82-4.52a14.93,14.93,0,0,0,.92-2.42.78.78,0,0,0,0-.17.4.4,0,0,0-.16-.3,2.92,2.92,0,0,0-1.06-.38v-.42a21.06,21.06,0,0,1,2.41-.17H296l0,.22-.4,1.25-.93,2.35L293,139.17c-.31.84-.82,2.15-1.52,3.89l-.42,1.1a9.87,9.87,0,0,1-.72,1.63,2.28,2.28,0,0,0-.41,1l0,.19a2.87,2.87,0,0,0,.95-.6,8,8,0,0,0,1.62-1.91,1.45,1.45,0,0,1,.41-.07h.15a5,5,0,0,1-1,1.59,11.63,11.63,0,0,1-1.2,1.16,6.94,6.94,0,0,1-1.41.86A2.12,2.12,0,0,1,288.64,148.21Z" fill="#424142"/><path d="M293,131.43l0-.37q1.56-.13,2.36-.13H296v.17l-.39,1.23-.93,2.35L293,139.15q-.46,1.26-1.52,3.88l-.42,1.1a9.81,9.81,0,0,1-.71,1.63,2.3,2.3,0,0,0-.42,1l.05.2a2,2,0,0,0,1-.57,8,8,0,0,0,1.63-1.92,1.87,1.87,0,0,1,.37-.05h.14a6.59,6.59,0,0,1-1,1.51,11.62,11.62,0,0,1-1.19,1.16,6.86,6.86,0,0,1-1.4.85,2.05,2.05,0,0,1-.84.19.44.44,0,0,1-.33-.11.4.4,0,0,1-.11-.29,30.86,30.86,0,0,1,2-5.24q.62-1.41,1.29-3.22,1.18-3.17,1.82-4.52a14.93,14.93,0,0,0,.93-2.42.83.83,0,0,0,0-.18.46.46,0,0,0-.18-.34A2.94,2.94,0,0,0,293,131.43Z" fill="#424142"/><path d="M289.8,154.19a3.93,3.93,0,0,1-2.11-.4,1.09,1.09,0,0,1-.58-.82.64.64,0,0,1,.21-.47.67.67,0,0,1,.48-.2,1.78,1.78,0,0,1,.77.2,3.25,3.25,0,0,1,.64.56,1.44,1.44,0,0,0,.45.36,1.87,1.87,0,0,0,.65.08,4.23,4.23,0,0,0,1.56-.37,4.42,4.42,0,0,0,1.32-.77,10.43,10.43,0,0,0,1.88-1.76,5.93,5.93,0,0,0,1-1.68,10.66,10.66,0,0,0,.61-2.59,22.18,22.18,0,0,0,.2-2.69q0-.66-.06-2.43a8.32,8.32,0,0,0-.19-1.64,1.31,1.31,0,0,0-.33-.61.37.37,0,0,0-.26-.09.6.6,0,0,0-.47.24,6.21,6.21,0,0,0-.87,2.05l-.14.06a.62.62,0,0,1-.35-.15,14.21,14.21,0,0,1,.62-2.13,5,5,0,0,1,.69-1.14,2,2,0,0,1,.6-.39l.34,0c.51,0,.92.33,1.23,1a8.83,8.83,0,0,1,.61,3.62c0,.68,0,1.54-.15,2.56a19.62,19.62,0,0,1-.31,2.26q-.16.74-.21,1.08l0,0a25.77,25.77,0,0,0,1.4-2.33,11.57,11.57,0,0,0,.83-2,18.1,18.1,0,0,0,.59-2.39,9.49,9.49,0,0,0,.13-1.6q0-.32,0-.54c0-.2,0-.33,0-.37a1.59,1.59,0,0,1,.25-1,.54.54,0,0,1,.48-.2.67.67,0,0,1,.53.19.9.9,0,0,1,.17.62,15.43,15.43,0,0,1-.73,3,24.92,24.92,0,0,1-2,5.19,24.32,24.32,0,0,1-3.7,4.92,9.6,9.6,0,0,1-3,2.12A6.93,6.93,0,0,1,289.8,154.19Z" fill="#424142"/><path d="M289.17,153.09a1.47,1.47,0,0,0,.46.37,1.89,1.89,0,0,0,.67.08,4.25,4.25,0,0,0,1.58-.37,4.45,4.45,0,0,0,1.34-.78,10.37,10.37,0,0,0,1.88-1.76,6,6,0,0,0,1-1.69,10.66,10.66,0,0,0,.61-2.6,22.14,22.14,0,0,0,.2-2.7q0-.66-.06-2.43a8.27,8.27,0,0,0-.2-1.65,1.36,1.36,0,0,0-.35-.64.42.42,0,0,0-.29-.1.65.65,0,0,0-.51.25,6.22,6.22,0,0,0-.88,2.07l-.1,0a.58.58,0,0,1-.32-.14,17,17,0,0,1,.63-2.07,5,5,0,0,1,.69-1.13,1.93,1.93,0,0,1,.58-.38l.32,0q.74,0,1.18,1a8.74,8.74,0,0,1,.61,3.6q0,1-.15,2.55a19.47,19.47,0,0,1-.31,2.25q-.22,1-.24,1.27a1,1,0,0,0,.14-.19,25.72,25.72,0,0,0,1.4-2.34,11.6,11.6,0,0,0,.83-2,18.12,18.12,0,0,0,.59-2.4,9.53,9.53,0,0,0,.13-1.61q0-.32,0-.55t0-.37a1.54,1.54,0,0,1,.24-.94.49.49,0,0,1,.44-.18.62.62,0,0,1,.49.18.87.87,0,0,1,.16.58,15.6,15.6,0,0,1-.72,3,24.75,24.75,0,0,1-2,5.18,24.16,24.16,0,0,1-3.69,4.91,9.51,9.51,0,0,1-3,2.11,6.84,6.84,0,0,1-2.66.67,3.93,3.93,0,0,1-2.08-.39q-.56-.39-.56-.78a.59.59,0,0,1,.19-.44.62.62,0,0,1,.44-.18,1.72,1.72,0,0,1,.75.19A3.27,3.27,0,0,1,289.17,153.09Z" fill="#424142"/><path d="M314.74,148.06h-4l-.62,0-1.09,0h-1.1l-.06-.44,1.23-.1.78-.1.94-.2a3,3,0,0,1,.08-.51c.45-2.25.76-3.86.91-4.81l.78-4.3c0-.1.09-.52.19-1.25l.42-2.14a10.6,10.6,0,0,0,.18-1.35c0-.11,0-.22,0-.33a.44.44,0,0,0-.19-.4,4,4,0,0,0-1.44-.21l-.81-.05a1,1,0,0,1,0-.53l1.59,0h1.89l1.05,0,8.91-.1.57,0h.46a7.09,7.09,0,0,1-.22,1.63,7.37,7.37,0,0,1-.33,1.25h0a.44.44,0,0,1-.35-.15,9.34,9.34,0,0,1-.16-1q0-.6-.05-.69a2.53,2.53,0,0,0-.12-.38l-.66-.06-.4,0h-.48l-.32,0h-.41l-.87.06H317.6l-1.26,0a3.54,3.54,0,0,0-.57.09l-.42.17a2.82,2.82,0,0,1-.12.69l-.3,1.61-.27,1.5,0,.36c-.2,1-.33,1.74-.38,2.16,0,.12,0,.25,0,.38a25.93,25.93,0,0,1,3.52-.31c2.37-.13,3.64-.22,3.79-.27a1.62,1.62,0,0,0,.75-.38,8.33,8.33,0,0,0,1-1.78l.52-.09a19.32,19.32,0,0,1-.48,2.71,6.5,6.5,0,0,0-.13.68q-.05.31-.23,1c0,.18-.07.33-.09.43a3.8,3.8,0,0,1-.14.69h-.53l0-.1a1.29,1.29,0,0,1,0-.26,4.18,4.18,0,0,0,.06-.88,1.59,1.59,0,0,0-.25-1.07,1.72,1.72,0,0,0-1.13-.25,15.17,15.17,0,0,0-2.11.18c-.62,0-1.52.06-2.67.14l-.89.06-.24,0a3,3,0,0,0-.54,0l-.32,0c-.09.65-.19,1.14-.26,1.42-.18.7-.3,1.27-.37,1.69l-.72,3.8a2.37,2.37,0,0,0,0,.38.75.75,0,0,0,.08.3,1.4,1.4,0,0,0,.47.27,4.33,4.33,0,0,0,.92.08H315l2.5-.11h.33a10.59,10.59,0,0,0,1.67-.15l.61-.08a6,6,0,0,0,2.86-1.13,4.83,4.83,0,0,0,1.49-2.14l.22,0,.23,0c-.06.48-.43,1.8-1.07,4-.95.06-2.26.07-4,.07L318,148h-.55l-1.59.05Z" fill="#424142"/><path d="M310.82,147.27q.05-.22.11-.55.68-3.38.91-4.81l.78-4.3q0-.15.19-1.26l.42-2.13a10.58,10.58,0,0,0,.18-1.36c0-.11,0-.22,0-.33a.49.49,0,0,0-.22-.44,4.35,4.35,0,0,0-1.46-.22l-.81-.05a1.9,1.9,0,0,1,.09-.47h3.43l1.05,0,8.91-.1.57,0h.47q0,.33-.27,1.57a7.22,7.22,0,0,1-.33,1.24.51.51,0,0,1-.32-.17q-.14-.76-.15-1,0-.61-.05-.69a2.72,2.72,0,0,0-.13-.39,5,5,0,0,0-.71-.09l-.39,0h-.48l-.33,0h-.4l-.87.06H317.6l-1.27,0a3.52,3.52,0,0,0-.58.09l-.43.18a5.78,5.78,0,0,1-.15.72l-.3,1.61-.27,1.5,0,.37q-.3,1.52-.38,2.16,0,.18,0,.38.65-.09,3.58-.25,3.57-.2,3.8-.27a1.66,1.66,0,0,0,.77-.39,8.29,8.29,0,0,0,1-1.79l.48-.06q-.11.72-.53,2.65a6.43,6.43,0,0,0-.13.69q-.05.3-.23,1c0,.19-.07.33-.09.43a3.79,3.79,0,0,1-.14.69l-.44,0v-.06a1.42,1.42,0,0,1,0-.24,4.19,4.19,0,0,0,.06-.89,1.62,1.62,0,0,0-.27-1.1,1.74,1.74,0,0,0-1.17-.27,15.09,15.09,0,0,0-2.12.18q-.94,0-2.66.14l-.89.06-.24,0a3,3,0,0,0-.54,0l-.32,0q-.2,1-.3,1.46-.27,1.07-.37,1.69l-.72,3.8a2.45,2.45,0,0,0,0,.39.79.79,0,0,0,.09.32,1.39,1.39,0,0,0,.51.3,4.31,4.31,0,0,0,.94.08H315l2-.09.49,0h.33a10.58,10.58,0,0,0,1.68-.15l.61-.08a6,6,0,0,0,2.88-1.14,4.86,4.86,0,0,0,1.51-2.16h.18l.22,0q-.14.62-1.1,3.95-1.35,0-3.94,0L318,148h-.54l-1.59.05-1.15,0h-4l-.62,0L309,148h-1.1v-.39l1.18-.05.79-.1Z" fill="#424142"/><path d="M332.73,148.24a.75.75,0,0,1-.49-.14.41.41,0,0,1-.17-.32,5.82,5.82,0,0,1,.65-2.1l1.84-4,.71-1.69a5.61,5.61,0,0,0,.29-.77,1.83,1.83,0,0,0,0-.42.32.32,0,0,0-.08-.23.25.25,0,0,0-.19-.08.88.88,0,0,0-.44.16,8.62,8.62,0,0,0-2.06,1.91,31.21,31.21,0,0,0-2.16,2.8,34.94,34.94,0,0,0-2.32,4.3,1.31,1.31,0,0,1-.38.54,2.65,2.65,0,0,1-.44,0,3.16,3.16,0,0,1-.52-.06.37.37,0,0,1-.09-.21,1.65,1.65,0,0,1,.13-.47c.18-.55.65-1.72,1.37-3.48l.29-.69,1.62-4.3a.28.28,0,0,0-.06-.08h0c-.49,0-1.16.69-2.06,2a1.08,1.08,0,0,1-.24,0h-.26a5.27,5.27,0,0,1,.83-1.43,7.28,7.28,0,0,1,1.29-1.36,6,6,0,0,1,1.3-.81,1,1,0,0,1,.39-.09h.19a.7.7,0,0,1,.27.52,1.55,1.55,0,0,1,0,.32q0,.15-.13.47-.38,1.09-.56,1.54l-.72,1.88q-.2.51-.39,1.06a37.26,37.26,0,0,1,2.54-3.29,10.73,10.73,0,0,1,2.27-2.12,2.37,2.37,0,0,1,1.23-.4,1,1,0,0,1,.71.25.86.86,0,0,1,.26.64,2,2,0,0,1-.05.46,9.66,9.66,0,0,1-.4,1.35c-.2.57-.74,1.83-1.6,3.75l-1.27,2.93,0,.16a.64.64,0,0,0,.08.19c.4-.12,1.11-.88,2-2.26h.56a8.21,8.21,0,0,1-1.26,1.91A5.76,5.76,0,0,1,333.7,148,1.88,1.88,0,0,1,332.73,148.24Z" fill="#424142"/><path d="M330.4,139a.27.27,0,0,0-.07-.14.16.16,0,0,0-.11,0q-.66,0-2.06,2.08h-.46a9.68,9.68,0,0,1,.87-1.35,7.18,7.18,0,0,1,1.28-1.35,5.94,5.94,0,0,1,1.29-.81.93.93,0,0,1,.37-.09h.19a.67.67,0,0,1,.23.47,1.51,1.51,0,0,1,0,.31q0,.15-.13.47-.38,1.09-.56,1.54l-.72,1.88q-.25.65-.49,1.37l.18-.24a37.08,37.08,0,0,1,2.55-3.31,10.64,10.64,0,0,1,2.25-2.11,2.31,2.31,0,0,1,1.21-.39.93.93,0,0,1,.67.23.81.81,0,0,1,.24.6,1.94,1.94,0,0,1-.05.44,9.5,9.5,0,0,1-.39,1.35q-.3.86-1.6,3.74l-1.27,2.93-.05.17a.53.53,0,0,0,.09.23q.71-.15,2.13-2.26h.52a13.67,13.67,0,0,1-1.29,1.83,5.68,5.68,0,0,1-1.5,1.32,1.82,1.82,0,0,1-1,.27.7.7,0,0,1-.46-.13.36.36,0,0,1-.15-.28,5.75,5.75,0,0,1,.65-2.08l1.84-4,.71-1.69a5.66,5.66,0,0,0,.29-.77,1.89,1.89,0,0,0,.05-.43.37.37,0,0,0-.09-.26.3.3,0,0,0-.23-.1.93.93,0,0,0-.47.17,8.63,8.63,0,0,0-2.07,1.92,31.05,31.05,0,0,0-2.16,2.81,34.78,34.78,0,0,0-2.32,4.3,1.26,1.26,0,0,1-.37.52l-.41,0a3.08,3.08,0,0,1-.51-.06.4.4,0,0,1-.05-.17,1.9,1.9,0,0,1,.13-.46q.28-.83,1.37-3.48l.29-.69Z" fill="#424142"/><path d="M340.75,154.28a13.47,13.47,0,0,1-2.51-.17,8.78,8.78,0,0,1-2.22-.72,3.71,3.71,0,0,1-1.29-1.07,1.32,1.32,0,0,1-.28-.78,1.28,1.28,0,0,1,.54-1,26.16,26.16,0,0,1,4.28-2.14,6.18,6.18,0,0,1-1.26-1.05.49.49,0,0,1-.11-.31.56.56,0,0,1,.15-.38,2,2,0,0,1,.67-.38,12.68,12.68,0,0,0,1.67-1,3.71,3.71,0,0,1-.62-.6l-.41-.44a3.46,3.46,0,0,1-.29-.77,3.65,3.65,0,0,1-.13-1,4.62,4.62,0,0,1,.24-1.49,7,7,0,0,1,.85-1.79,5.14,5.14,0,0,1,1-1.15,3,3,0,0,1,.88-.46,4.22,4.22,0,0,1,1.35-.28,3,3,0,0,1,1.32.32,2.15,2.15,0,0,0,.94.2,4,4,0,0,0,.51,0l.42,0,.31,0a2.68,2.68,0,0,1,.08.6.55.55,0,0,1-.1.29,1.52,1.52,0,0,1-.33,0,3.73,3.73,0,0,1-.9-.17l-.43-.11a3,3,0,0,1,.42,1.66,5.61,5.61,0,0,1-1.27,3.49,5,5,0,0,1-3,2,3.2,3.2,0,0,0-1.39.57.43.43,0,0,0-.18.37c0,.26.22.56.64.9l1.49.72a9.36,9.36,0,0,1,2.94,1.54,2.24,2.24,0,0,1,.78,1.79,2,2,0,0,1-.31,1.09,3.06,3.06,0,0,1-1,.91,5.33,5.33,0,0,1-1.51.52A9.06,9.06,0,0,1,340.75,154.28Zm-1-5.46a14.51,14.51,0,0,0-2.18,1,5.62,5.62,0,0,0-1.09.73,2.6,2.6,0,0,0-.4.4,1.33,1.33,0,0,0-.15.6,1.26,1.26,0,0,0,.37.9,4.25,4.25,0,0,0,1.87.93l.39.12a6.86,6.86,0,0,0,.76.14c.53,0,1,0,1.35,0a6.43,6.43,0,0,0,2.16-.37,3.13,3.13,0,0,0,1.33-.75.94.94,0,0,0,.21-.63,1.88,1.88,0,0,0-.8-1.36,9.77,9.77,0,0,0-2.46-1.21ZM343.12,138a1.56,1.56,0,0,0-1,.46,7.08,7.08,0,0,0-1.24,2.31,8.54,8.54,0,0,0-.73,2.86,1.38,1.38,0,0,0,.31.89,1.2,1.2,0,0,0,.76.45,2.21,2.21,0,0,0,1.08-.47,4.46,4.46,0,0,0,.71-1,8.85,8.85,0,0,0,.74-1.53,8.19,8.19,0,0,0,.56-2.58,1.49,1.49,0,0,0-.32-1A1.06,1.06,0,0,0,343.12,138Z" fill="#424142"/><path d="M339.29,148.44a10.12,10.12,0,0,1-1.24-1.13.44.44,0,0,1-.1-.28.51.51,0,0,1,.13-.34,2,2,0,0,1,.65-.37,12.63,12.63,0,0,0,1.68-1q-.14-.18-.61-.67l-.41-.44a3.5,3.5,0,0,1-.28-.75,3.58,3.58,0,0,1-.13-.94,4.55,4.55,0,0,1,.24-1.47,6.9,6.9,0,0,1,.84-1.78,5.06,5.06,0,0,1,1-1.13,3,3,0,0,1,.86-.46,4.14,4.14,0,0,1,1.33-.28,2.92,2.92,0,0,1,1.29.32,2.19,2.19,0,0,0,1,.2,4.14,4.14,0,0,0,.51,0l.41,0,.3,0q0,.38,0,.55a.5.5,0,0,1-.09.27l-.29,0a3.73,3.73,0,0,1-.89-.17l-.43-.11a4,4,0,0,1,.36,1.71,5.53,5.53,0,0,1-1.26,3.46,5,5,0,0,1-2.93,2,3.23,3.23,0,0,0-1.41.58.48.48,0,0,0-.2.41q0,.42.66.94l1.5.72a9.28,9.28,0,0,1,2.93,1.54,2.18,2.18,0,0,1,.76,1.75,1.93,1.93,0,0,1-.3,1.06,3,3,0,0,1-1,.9,5.27,5.27,0,0,1-1.49.51,9,9,0,0,1-2,.23,13.37,13.37,0,0,1-2.5-.17,8.68,8.68,0,0,1-2.21-.71,3.65,3.65,0,0,1-1.27-1.05,1.27,1.27,0,0,1-.27-.75,1.23,1.23,0,0,1,.52-1A26,26,0,0,1,339.29,148.44Zm-3,4.06a4.28,4.28,0,0,0,1.89.94l.38.11a6.76,6.76,0,0,0,.77.14q.8,0,1.36,0a6.44,6.44,0,0,0,2.18-.37,3.14,3.14,0,0,0,1.35-.76,1,1,0,0,0,.22-.66,1.92,1.92,0,0,0-.81-1.4,9.78,9.78,0,0,0-2.48-1.22l-1.37-.56a14.33,14.33,0,0,0-2.21,1,5.66,5.66,0,0,0-1.1.74,2.87,2.87,0,0,0-.41.42,1.38,1.38,0,0,0-.15.62A1.3,1.3,0,0,0,336.31,152.5Zm4.86-7.49a2.24,2.24,0,0,0,1.12-.48,4.44,4.44,0,0,0,.72-1,8.85,8.85,0,0,0,.75-1.54,8.2,8.2,0,0,0,.56-2.6,1.53,1.53,0,0,0-.34-1.06,1.1,1.1,0,0,0-.86-.37,1.6,1.6,0,0,0-1.08.48,7.08,7.08,0,0,0-1.25,2.33,8.55,8.55,0,0,0-.73,2.88,1.43,1.43,0,0,0,.32.93A1.24,1.24,0,0,0,341.17,145Z" fill="#424142"/><path d="M346.53,148.21a.48.48,0,0,1-.37-.13.45.45,0,0,1-.12-.33,30.24,30.24,0,0,1,2-5.26c.41-.94.85-2,1.29-3.22.79-2.11,1.4-3.63,1.82-4.52a14.93,14.93,0,0,0,.92-2.42.78.78,0,0,0,0-.17.4.4,0,0,0-.16-.3,2.92,2.92,0,0,0-1.06-.38v-.42a21.06,21.06,0,0,1,2.41-.17h.56l0,.22-.4,1.25-.93,2.35-1.71,4.47c-.31.84-.82,2.15-1.52,3.89l-.42,1.1a9.87,9.87,0,0,1-.72,1.63,2.28,2.28,0,0,0-.41,1l0,.19a2.87,2.87,0,0,0,.95-.6,8,8,0,0,0,1.62-1.91,1.45,1.45,0,0,1,.41-.07H351a5,5,0,0,1-1,1.59,11.63,11.63,0,0,1-1.2,1.16,6.94,6.94,0,0,1-1.41.86A2.12,2.12,0,0,1,346.53,148.21Z" fill="#424142"/><path d="M350.93,131.43l0-.37q1.56-.13,2.36-.13h.56v.17l-.39,1.23-.93,2.35-1.71,4.47q-.46,1.26-1.52,3.88l-.42,1.1a9.81,9.81,0,0,1-.71,1.63,2.3,2.3,0,0,0-.42,1l.05.2a2,2,0,0,0,1-.57,8,8,0,0,0,1.63-1.92,1.87,1.87,0,0,1,.37-.05H351a6.59,6.59,0,0,1-1,1.51,11.62,11.62,0,0,1-1.19,1.16,6.86,6.86,0,0,1-1.4.85,2.05,2.05,0,0,1-.84.19.44.44,0,0,1-.33-.11.4.4,0,0,1-.11-.29,30.86,30.86,0,0,1,2-5.24q.62-1.41,1.29-3.22,1.18-3.17,1.82-4.52a14.93,14.93,0,0,0,.93-2.42.83.83,0,0,0,0-.18.46.46,0,0,0-.18-.34A2.94,2.94,0,0,0,350.93,131.43Z" fill="#424142"/><path d="M352.21,148.17a1,1,0,0,1-.66-.18.62.62,0,0,1-.22-.49,10.37,10.37,0,0,1,1.44-3.71l2-3.86a8.36,8.36,0,0,0,.44-.93,1,1,0,0,0,.07-.27.69.69,0,0,0-.06-.21l-.33.07a5.64,5.64,0,0,0-.86.54,7.31,7.31,0,0,0-1.07,1l-.76.18a6.72,6.72,0,0,1,2.14-2.16,4,4,0,0,1,1.91-.76.64.64,0,0,1,.47.16.56.56,0,0,1,.16.41,5.72,5.72,0,0,1-.72,2.09q-.09.18-.42.91c-.5,1.1-1.05,2.16-1.63,3.15q-.28.48-.61,1.14-.18.36-.32.6a2.24,2.24,0,0,0-.39,1,.17.17,0,0,0,.06.12.18.18,0,0,0,.14.06,1,1,0,0,0,.4-.15,6.2,6.2,0,0,0,1.13-.84,6.93,6.93,0,0,0,1.16-1.34l.6,0a6.4,6.4,0,0,1-1.1,1.66,6.22,6.22,0,0,1-1.72,1.43A2.71,2.71,0,0,1,352.21,148.17Zm4.8-14.29a1,1,0,0,1-.72-.29,1.06,1.06,0,0,1-.29-.78,1.16,1.16,0,0,1,.36-.83,1.14,1.14,0,0,1,.84-.36,1.06,1.06,0,0,1,.77.32,1,1,0,0,1,.32.73,1.4,1.4,0,0,1-.39,1A1.19,1.19,0,0,1,357,133.88Z" fill="#424142"/><path d="M355.32,138.5a1.48,1.48,0,0,0-.39,0,5.61,5.61,0,0,0-.88.55,7.32,7.32,0,0,0-1.08,1l-.74.17a8,8,0,0,1,2.17-2.07,4,4,0,0,1,1.88-.75.6.6,0,0,1,.44.15.51.51,0,0,1,.15.37,5.66,5.66,0,0,1-.71,2.07q-.09.18-.42.91-.76,1.66-1.63,3.15-.28.48-.61,1.14-.18.36-.32.6a2.26,2.26,0,0,0-.39,1,.22.22,0,0,0,.07.16.23.23,0,0,0,.17.07,1,1,0,0,0,.43-.15,6.2,6.2,0,0,0,1.14-.84,7,7,0,0,0,1.17-1.35h.56a10.55,10.55,0,0,1-1.14,1.57,6.14,6.14,0,0,1-1.71,1.42,2.66,2.66,0,0,1-1.27.41.94.94,0,0,1-.62-.17.57.57,0,0,1-.2-.45,10.3,10.3,0,0,1,1.43-3.68l2-3.86a8.32,8.32,0,0,0,.44-.94,1.11,1.11,0,0,0,.08-.29A.78.78,0,0,0,355.32,138.5Zm.72-5.7a1.1,1.1,0,0,1,.34-.79,1.09,1.09,0,0,1,.8-.35,1,1,0,0,1,.74.3,1,1,0,0,1,.3.7,1.35,1.35,0,0,1-.38.93,1.14,1.14,0,0,1-.84.24.93.93,0,0,1-.69-.28A1,1,0,0,1,356,132.8Z" fill="#424142"/><path d="M359.4,148.1a2.43,2.43,0,0,1-1.63-.47,1.45,1.45,0,0,1-.54-1.13.92.92,0,0,1,.23-.65.79.79,0,0,1,.61-.25c.44,0,.81.34,1.09,1a1.63,1.63,0,0,0,.38.61.61.61,0,0,0,.44.15,1.41,1.41,0,0,0,1-.49,1.56,1.56,0,0,0,.37-1.13,6.14,6.14,0,0,0-.43-1.81,9.25,9.25,0,0,1-.61-2.79,4.5,4.5,0,0,1,.8-2.62,2.88,2.88,0,0,1,2.53-1.15,1.7,1.7,0,0,1,1.19.41,1.3,1.3,0,0,1,.45,1,.94.94,0,0,1-.22.65.67.67,0,0,1-.51.25,1.34,1.34,0,0,1-1-.56,3.49,3.49,0,0,0-.58-.62,1.06,1.06,0,0,0-.44-.07.77.77,0,0,0-.59.29,1,1,0,0,0-.26.7,9.81,9.81,0,0,0,.61,2.85,9.65,9.65,0,0,1,.61,2.87,2.61,2.61,0,0,1-.41,1.34,3.26,3.26,0,0,1-1.26,1.15A3.62,3.62,0,0,1,359.4,148.1Z" fill="#424142"/><path d="M358.07,145.65q.64,0,1,1a1.66,1.66,0,0,0,.39.63.66.66,0,0,0,.47.17,1.45,1.45,0,0,0,1-.51,1.59,1.59,0,0,0,.38-1.17,6.15,6.15,0,0,0-.43-1.83,9.16,9.16,0,0,1-.61-2.77,4.43,4.43,0,0,1,.79-2.59,2.82,2.82,0,0,1,2.49-1.13,1.65,1.65,0,0,1,1.16.39,1.24,1.24,0,0,1,.43,1,.89.89,0,0,1-.21.62.62.62,0,0,1-.48.23,1.29,1.29,0,0,1-1-.54,3.46,3.46,0,0,0-.6-.63,1.1,1.1,0,0,0-.47-.08.82.82,0,0,0-.63.31,1.07,1.07,0,0,0-.27.74,9.79,9.79,0,0,0,.61,2.87,9.57,9.57,0,0,1,.61,2.85,2.55,2.55,0,0,1-.4,1.32,3.19,3.19,0,0,1-1.24,1.13,3.56,3.56,0,0,1-1.73.46,2.38,2.38,0,0,1-1.59-.46,1.4,1.4,0,0,1-.53-1.09.87.87,0,0,1,.22-.62A.74.74,0,0,1,358.07,145.65Z" fill="#424142"/><path d="M369.83,148.3A1,1,0,0,1,369,148a1.22,1.22,0,0,1-.39-.85.53.53,0,0,1,.22-.4.84.84,0,0,1,.56-.18.73.73,0,0,1,.43.12,2.57,2.57,0,0,1,.48.59c.16.15.26.18.31.18s.29-.09.62-.53a16.2,16.2,0,0,0,1.84-4.14,12.67,12.67,0,0,0,.82-3.65,1.55,1.55,0,0,0-.18-.9.58.58,0,0,0-.48-.22.9.9,0,0,0-.39.11,5.66,5.66,0,0,0-1.48,1.17,35.1,35.1,0,0,0-2.53,3.23,19.29,19.29,0,0,0-1.24,2.43c-.58,1.26-1,2.17-1.18,2.68a1.26,1.26,0,0,1-.33.52.71.71,0,0,1-.42.12.63.63,0,0,1-.42-.11.41.41,0,0,1-.13-.33,2.17,2.17,0,0,1,.2-.72l.89-2.27c.05-.11.1-.22.14-.33l3.52-10.26.51-1.47a2.83,2.83,0,0,0,.2-.75.29.29,0,0,0-.06-.2.46.46,0,0,0-.26-.11,4.91,4.91,0,0,1-.9-.27l0-.32c1.5-.2,2.35-.28,2.66-.28h.4l0,.3-.34.86-.73,2.12q-.18.48-.49,1.5c-.38,1.25-.79,2.39-1.21,3.39s-.79,2-1.14,3.14a3.78,3.78,0,0,1,.38-.63,17,17,0,0,1,3-3.52,2.75,2.75,0,0,1,1.66-.65,1.48,1.48,0,0,1,1.15.56,2.6,2.6,0,0,1,.48,1.71,10.3,10.3,0,0,1-.73,3.44,11.42,11.42,0,0,1-1.72,3.22,6,6,0,0,1-1.71,1.6A2.93,2.93,0,0,1,369.83,148.3Z" fill="#424142"/><path d="M369.42,131.43l.05-.27q2.16-.24,2.61-.24h.4l-.06.24-.34.85-.74,2.12q-.18.48-.49,1.5-.57,1.88-1.2,3.39t-1.18,3.27q.2-.25.51-.71a16.85,16.85,0,0,1,3-3.5,2.69,2.69,0,0,1,1.63-.63,1.42,1.42,0,0,1,1.12.55,2.54,2.54,0,0,1,.47,1.68,10.21,10.21,0,0,1-.72,3.42,11.32,11.32,0,0,1-1.71,3.21,5.94,5.94,0,0,1-1.69,1.59,2.87,2.87,0,0,1-1.27.36,1,1,0,0,1-.75-.27,1.17,1.17,0,0,1-.38-.81.48.48,0,0,1,.2-.36.8.8,0,0,1,.53-.17.69.69,0,0,1,.41.11,2.58,2.58,0,0,1,.47.58.6.6,0,0,0,.35.2q.24,0,.66-.55a16.15,16.15,0,0,0,1.85-4.15,12.64,12.64,0,0,0,.82-3.67,1.58,1.58,0,0,0-.19-.93.63.63,0,0,0-.52-.24.94.94,0,0,0-.41.11,5.69,5.69,0,0,0-1.49,1.18,35,35,0,0,0-2.54,3.24A19.21,19.21,0,0,0,367.6,145q-.87,1.9-1.18,2.68a1.23,1.23,0,0,1-.31.5.66.66,0,0,1-.4.11.59.59,0,0,1-.39-.1.37.37,0,0,1-.12-.29,2.15,2.15,0,0,1,.2-.7l.89-2.27c0-.11.1-.22.14-.33L370,134.3l.51-1.47a2.85,2.85,0,0,0,.2-.77.34.34,0,0,0-.08-.24.52.52,0,0,0-.29-.12A4.84,4.84,0,0,1,369.42,131.43Z" fill="#424142"/><path d="M390.3,148.12a7.11,7.11,0,0,1-4.44-1.55,4.93,4.93,0,0,1-2-4.07,6.82,6.82,0,0,1,.33-1.89,8.23,8.23,0,0,1,1-2.15,7.49,7.49,0,0,1,1.2-1.23,6,6,0,0,1,1.61-1,4,4,0,0,1,1.58-.3,3.69,3.69,0,0,1,1.62.36,2.07,2.07,0,0,1,.8.9l.13.3c.08-.13.35-.39.73-.79l1.76-2a6.78,6.78,0,0,0,.88-1.28,1.2,1.2,0,0,0,0-.4.91.91,0,0,1-.69-.23,1,1,0,0,1-.27-.69,1.39,1.39,0,0,1,.4-1,1.3,1.3,0,0,1,1-.42,1.05,1.05,0,0,1,.77.33,1,1,0,0,1,.33.75,3.2,3.2,0,0,1-.5,1.55,14.6,14.6,0,0,1-1.92,2.37l-.42.47-3.54,3.89-.68.81c-1.09,1.28-2.27,2.58-3.52,3.86.34.23.67.47,1,.66a10.38,10.38,0,0,0,1.52.71,11,11,0,0,0,1.24.28,7.69,7.69,0,0,0,1.34.09,10.9,10.9,0,0,0,2.54-.39,8.92,8.92,0,0,0,2.61-1.07,10,10,0,0,0,2.35-2q.52-.62.71-.83l.68-.91c.28-.47.52-.87.73-1.2,0-.11.13-.28.24-.5a6,6,0,0,0,.25-.55L400,137.86a6.57,6.57,0,0,0-1.52-.92,1.71,1.71,0,0,0-.67-.14,1.55,1.55,0,0,0-1.12.4,1.48,1.48,0,0,0-.42,1.11,1.51,1.51,0,0,0,.21.84.31.31,0,0,0,.26.17l.25,0a1.48,1.48,0,0,1,.24-.83.66.66,0,0,1,.51-.21.61.61,0,0,1,.48.21,1,1,0,0,1,.21.64,1,1,0,0,1-.33.73,1.22,1.22,0,0,1-.85.3,1.5,1.5,0,0,1-1.14-.52,1.94,1.94,0,0,1-.48-1.35,2.41,2.41,0,0,1,.83-1.76,2.77,2.77,0,0,1,2-.79A4.15,4.15,0,0,1,400,136a10.36,10.36,0,0,1,2.29,1.3,13.09,13.09,0,0,0,1.84,1.16,2.43,2.43,0,0,0,1,.23,1.22,1.22,0,0,0,.9-.45,1.67,1.67,0,0,0,.42-1.17,1.44,1.44,0,0,0-.31-1,.88.88,0,0,0-.66-.35.19.19,0,0,0-.13,0,.29.29,0,0,0,0,.15.92.92,0,0,1,.18.49.55.55,0,0,1-.18.42.79.79,0,0,1-1,0,.76.76,0,0,1-.2-.55,1,1,0,0,1,.35-.78,1.29,1.29,0,0,1,.92-.32,1.57,1.57,0,0,1,1.16.55,2,2,0,0,1,.52,1.43,2.63,2.63,0,0,1-.84,1.9,2.71,2.71,0,0,1-2,.84,4.81,4.81,0,0,1-2-.47c-.3.6-.59,1.1-.8,1.5a17.45,17.45,0,0,1-2,2.89,13.07,13.07,0,0,1-2.6,2.29,11.38,11.38,0,0,1-3.26,1.61A11.57,11.57,0,0,1,390.3,148.12Zm-.83-11.53a2.16,2.16,0,0,0-.93.21,4.35,4.35,0,0,0-1.22.87,8.81,8.81,0,0,0-1.21,1.5,8.56,8.56,0,0,0-.55,1.64,6.57,6.57,0,0,0-.07,1.24,7.27,7.27,0,0,0,.2,1.11,7.15,7.15,0,0,0,.49,1.06,2.31,2.31,0,0,1,.44-.57q1-1.08,1.11-1.22l2.14-2.36c.73-.81,1.17-1.32,1.3-1.51l-.25,0a.73.73,0,0,1-.5-.17.88.88,0,0,1-.23-.68,1,1,0,0,1,.07-.37,1.94,1.94,0,0,0,.12-.39.34.34,0,0,0-.17-.26A1.37,1.37,0,0,0,389.48,136.6Z" fill="#424142"/><path d="M392,137.22l.13.29a6.32,6.32,0,0,0,.81-.77l1.76-2a6.81,6.81,0,0,0,.89-1.29,1.24,1.24,0,0,0,.05-.42,1.16,1.16,0,0,1-.7-.27,1,1,0,0,1-.25-.66,1.34,1.34,0,0,1,.39-1,1.24,1.24,0,0,1,.93-.41,1,1,0,0,1,.73.31,1,1,0,0,1,.31.72,3.14,3.14,0,0,1-.49,1.52,14.47,14.47,0,0,1-1.91,2.36l-.42.47-3.54,3.89-.69.81q-1.64,1.93-3.51,3.86a6.75,6.75,0,0,0,1,.73,10.38,10.38,0,0,0,1.52.71,10.94,10.94,0,0,0,1.24.28,7.73,7.73,0,0,0,1.34.09,10.89,10.89,0,0,0,2.56-.39,8.91,8.91,0,0,0,2.62-1.07,10,10,0,0,0,2.36-2q.52-.62.71-.83l.69-.91c.28-.47.52-.88.74-1.21q.08-.18.24-.51c.11-.22.2-.41.25-.56L400,137.82a6.57,6.57,0,0,0-1.54-.93,1.74,1.74,0,0,0-.69-.14,1.59,1.59,0,0,0-1.16.42,1.52,1.52,0,0,0-.43,1.14,1.55,1.55,0,0,0,.22.86.36.36,0,0,0,.3.19l.25,0a1.82,1.82,0,0,1,.27-.85.61.61,0,0,1,.48-.19.56.56,0,0,1,.44.19.92.92,0,0,1,.2.61.9.9,0,0,1-.31.69,1.16,1.16,0,0,1-.82.29,1.44,1.44,0,0,1-1.1-.51,1.88,1.88,0,0,1-.46-1.32,2.35,2.35,0,0,1,.81-1.72,2.71,2.71,0,0,1,1.94-.78A4.09,4.09,0,0,1,400,136a10.26,10.26,0,0,1,2.28,1.29,13.12,13.12,0,0,0,1.85,1.17,2.47,2.47,0,0,0,1,.23,1.27,1.27,0,0,0,.94-.47,1.71,1.71,0,0,0,.43-1.21,1.47,1.47,0,0,0-.32-1,.92.92,0,0,0-.7-.36.23.23,0,0,0-.16,0,.32.32,0,0,0-.06.18,1,1,0,0,1,.18.5.5.5,0,0,1-.16.38.65.65,0,0,1-.46.15.66.66,0,0,1-.5-.2.71.71,0,0,1-.19-.51,1,1,0,0,1,.33-.74,1.24,1.24,0,0,1,.89-.31,1.51,1.51,0,0,1,1.12.53,2,2,0,0,1,.5,1.4,2.57,2.57,0,0,1-.83,1.87,2.65,2.65,0,0,1-1.94.83,4.74,4.74,0,0,1-1.94-.47q-.55.93-.86,1.52a17.36,17.36,0,0,1-2,2.88,13,13,0,0,1-2.59,2.28,11.28,11.28,0,0,1-3.24,1.61,11.46,11.46,0,0,1-3.23.47,7,7,0,0,1-4.41-1.54,4.86,4.86,0,0,1-2-4,6.75,6.75,0,0,1,.33-1.88,8.15,8.15,0,0,1,1-2.13,7.4,7.4,0,0,1,1.19-1.22,5.91,5.91,0,0,1,1.6-1,3.89,3.89,0,0,1,1.56-.29,3.63,3.63,0,0,1,1.6.36A2,2,0,0,1,392,137.22Zm-5.83,7,.52-.56,1.1-1.22,2.15-2.36q1.1-1.23,1.31-1.51a1.18,1.18,0,0,1-.76-.21.83.83,0,0,1-.22-.64,1,1,0,0,1,.06-.36,2.1,2.1,0,0,0,.13-.41.39.39,0,0,0-.19-.3,1.41,1.41,0,0,0-.76-.14,2.2,2.2,0,0,0-1,.22,4.37,4.37,0,0,0-1.23.88,8.83,8.83,0,0,0-1.22,1.51,8.52,8.52,0,0,0-.56,1.65,6.57,6.57,0,0,0-.08,1.26,4.65,4.65,0,0,0,.7,2.2Z" fill="#424142"/><path d="M428.41,148.35l-.4,0c-.21-.35-.41-.68-.64-1l-3.68-5.68c-.16-.25-.3-.48-.43-.69l-.92-1.37L419.41,135c-.4-.6-.74-1.08-1-1.43a3.09,3.09,0,0,0-.23-.36c-.09-.11-.19-.27-.31-.47l-.18-.28a7.72,7.72,0,0,1-.18,1.37l-.3,1.63c-.15.94-.41,2.34-.8,4.28l-.3,1.52-.31,2.26c-.08.63-.18,1.22-.3,1.76a6.2,6.2,0,0,0-.18,1.3.47.47,0,0,0,.15.3,8.18,8.18,0,0,0,.8.25,5.29,5.29,0,0,0,.73.15l1.36.32-.08.51c-.26,0-.61-.05-1.11-.1-1.17-.12-2-.18-2.47-.18l-.83,0-1.86.06h-.69l0-.52a2.87,2.87,0,0,1,.83-.14c.36,0,.63-.05.83-.09a2,2,0,0,0,1.14-.38,1,1,0,0,0,.3-.59l.76-3.51c.13-.63.23-1.07.31-1.34l0-.31.61-3.28a5,5,0,0,1,.21-.92,9.65,9.65,0,0,0,.27-1.87l.19-.95.16-1.6a.28.28,0,0,0-.14-.27,11.91,11.91,0,0,0-2.53-.5l.07-.47,4.76-.06a1.33,1.33,0,0,1,.28.37c.1.17.33.51.69,1l.73,1q.44.71.9,1.4t.86,1.39c.19.32,1.6,2.54,4,6.26q.69,1.08,1,1.56.5.91,1.05,1.79c0-.5.1-1.06.17-1.63.34-1.62.54-2.73.6-3.3q0-.47.12-.89t.16-1l.2-1.42c0-.16.1-.88.29-2.2a23,23,0,0,0,.28-2.66,2,2,0,0,0-.12-.55,6.91,6.91,0,0,0-1.81-.43l-.82-.15a.94.94,0,0,1-.08-.34v-.11l.21-.06,3.12.14.67,0c.55,0,1.11,0,1.66-.08q.59-.05.91-.05a1.39,1.39,0,0,1-.1.62,16.9,16.9,0,0,0-2.29.35.69.69,0,0,0-.33.2,4.75,4.75,0,0,0-.29,1.14q-.27,1.47-.36,2.16c-.06.46-.12.85-.18,1.16s-.14.72-.16.86l-.48,3.46-.86,5.18c-.17,1.13-.26,1.8-.27,2v0Z" fill="#424142"/><path d="M411.32,147.38a6.94,6.94,0,0,1,.79-.09c.36,0,.64-.05.84-.09a2,2,0,0,0,1.16-.39,1.06,1.06,0,0,0,.31-.62l.76-3.5q.19-.94.31-1.33l0-.32.6-3.28a5,5,0,0,1,.21-.91,9.62,9.62,0,0,0,.27-1.88l.19-.94.17-1.6a.33.33,0,0,0-.17-.32,11.78,11.78,0,0,0-2.55-.51l.12-.41,4.71,0a1.71,1.71,0,0,1,.23.34q.16.25.69,1l.73,1q.44.71.9,1.4t.86,1.38q.28.47,4,6.26.69,1.08,1,1.56.5.91,1.05,1.79.16-.79.26-1.65.52-2.45.6-3.3,0-.47.12-.89t.16-1l.2-1.42q0-.24.29-2.2a23,23,0,0,0,.28-2.67,2,2,0,0,0-.12-.57,6,6,0,0,0-1.85-.47l-.81-.15a1.54,1.54,0,0,1,0-.29v-.11h.17l3.11.14.67,0q.84,0,1.66-.08c.39,0,.69-.05.9-.05a3,3,0,0,1-.15.55,14.06,14.06,0,0,0-2.26.32.74.74,0,0,0-.36.22,5.22,5.22,0,0,0-.29,1.17q-.27,1.47-.36,2.16t-.18,1.16q-.12.65-.16.86l-.48,3.47-.86,5.18q-.26,1.7-.27,2h-.3l-.39,0c-.17-.32-.37-.66-.6-1l-3.68-5.68q-.24-.37-.42-.69l-.93-1.37L419.46,135q-.6-.91-1-1.43a3.07,3.07,0,0,0-.23-.36c-.09-.11-.19-.27-.31-.46l-.18-.28q-.1.38-.27,1.38l-.3,1.63q-.23,1.41-.8,4.28l-.3,1.52-.31,2.26a17.73,17.73,0,0,1-.3,1.75,6.21,6.21,0,0,0-.18,1.31.51.51,0,0,0,.16.33,6.89,6.89,0,0,0,.82.27,5.31,5.31,0,0,0,.74.15l1.36.32-.11.44q-.3-.06-1.06-.14-1.77-.18-2.47-.18l-.83,0-1.85.06h-.69Z" fill="#424142"/><path d="M435.64,148.17a2.11,2.11,0,0,1-1.7-.79,3.8,3.8,0,0,1-.65-2.44,8,8,0,0,1,.5-2.56,7.67,7.67,0,0,1,1.29-2.41l.4-.52a6.39,6.39,0,0,1,1.61-1.48,3.52,3.52,0,0,1,1.92-.6,1.93,1.93,0,0,1,1.54.76,3.94,3.94,0,0,1,.62,2.48,8.35,8.35,0,0,1-1.79,5.26C438.18,147.4,436.92,148.17,435.64,148.17Zm3.64-10.11a2.21,2.21,0,0,0-1.52.86,12.43,12.43,0,0,0-2.38,4,10.07,10.07,0,0,0-.81,3.41.95.95,0,0,0,1.11,1.09,1.74,1.74,0,0,0,1.17-.57,15.4,15.4,0,0,0,3.26-7.73,1.21,1.21,0,0,0-.25-.81A.73.73,0,0,0,439.28,138.07Z" fill="#424142"/><path d="M441.12,140.61a8.27,8.27,0,0,1-1.78,5.23q-1.78,2.29-3.7,2.29a2.05,2.05,0,0,1-1.66-.77,3.75,3.75,0,0,1-.63-2.41,8,8,0,0,1,.5-2.55,7.6,7.6,0,0,1,1.28-2.39l.41-.52a6.3,6.3,0,0,1,1.6-1.47,3.46,3.46,0,0,1,1.89-.6,1.87,1.87,0,0,1,1.5.74A3.87,3.87,0,0,1,441.12,140.61Zm-6.6,5.78a1,1,0,0,0,1.16,1.14,1.78,1.78,0,0,0,1.21-.58,15.44,15.44,0,0,0,3.28-7.77,1.25,1.25,0,0,0-.27-.84.79.79,0,0,0-.61-.31,2.24,2.24,0,0,0-1.56.88,12.44,12.44,0,0,0-2.39,4.06A10.07,10.07,0,0,0,434.52,146.39Z" fill="#424142"/><path d="M443.17,148.17a.8.8,0,0,1-.52-.13.44.44,0,0,1-.16-.35,1.72,1.72,0,0,1,.13-.6c.36-.88,1-2.54,1.75-4.91l.89-2.72c.06-.24.1-.4.13-.47l.08-.19s0-.11-.24-.27c-.22.2-.48.44-.72.71,0,0-.24.3-1.15,1.52l-.56,0a5.46,5.46,0,0,1,1.14-1.77,6.54,6.54,0,0,1,1.51-1.38,2.12,2.12,0,0,1,.93-.29.89.89,0,0,1,.48.26.62.62,0,0,1,.13.4,1.9,1.9,0,0,1-.05.44,20,20,0,0,1-.56,2c-.28.86-.53,1.55-.75,2l-.66,1.56,0,.09a9.85,9.85,0,0,1,.6-1.26,25.43,25.43,0,0,1,3-4.85,2.24,2.24,0,0,1,1.61-.67,1.45,1.45,0,0,1,1,.42,1.17,1.17,0,0,1,.35.88,1.52,1.52,0,0,1-.38,1,1,1,0,0,1-.76.31.75.75,0,0,1-.59-.2,1.8,1.8,0,0,1-.21-1c-.1-.18-.2-.28-.32-.28a.61.61,0,0,0-.4.2,18.93,18.93,0,0,0-2.29,3.48,33.84,33.84,0,0,0-2.11,4.09,10.16,10.16,0,0,1-.7,1.59A.61.61,0,0,1,443.17,148.17Z" fill="#424142"/><path d="M445.26,138.5a5.13,5.13,0,0,0-.79.71q-.1.11-1.16,1.52l-.52,0a7.86,7.86,0,0,1,1.18-1.69,6.47,6.47,0,0,1,1.49-1.37,2.06,2.06,0,0,1,.91-.28.84.84,0,0,1,.44.24.57.57,0,0,1,.12.36,1.82,1.82,0,0,1-.05.43,20.12,20.12,0,0,1-.55,2q-.42,1.29-.74,2l-.66,1.56-.05.23q.18-.3.72-1.36a25.28,25.28,0,0,1,3-4.84,2.19,2.19,0,0,1,1.57-.65,1.39,1.39,0,0,1,1,.41,1.11,1.11,0,0,1,.33.84,1.47,1.47,0,0,1-.37,1,.91.91,0,0,1-.72.29.7.7,0,0,1-.55-.18,1.78,1.78,0,0,1-.2-.92c-.11-.22-.23-.33-.37-.33a.65.65,0,0,0-.43.22,18.85,18.85,0,0,0-2.3,3.49,33.74,33.74,0,0,0-2.12,4.09,10,10,0,0,1-.69,1.58.56.56,0,0,1-.52.22.76.76,0,0,1-.49-.12.39.39,0,0,1-.14-.31,1.65,1.65,0,0,1,.13-.58q.55-1.33,1.75-4.91l.89-2.72q.09-.36.13-.46l.08-.19C445.51,138.74,445.43,138.64,445.26,138.5Z" fill="#424142"/><path d="M451.75,148.1a2.44,2.44,0,0,1-1.63-.47,1.46,1.46,0,0,1-.54-1.13.93.93,0,0,1,.23-.65.79.79,0,0,1,.61-.25c.44,0,.81.34,1.09,1a1.64,1.64,0,0,0,.38.61.62.62,0,0,0,.44.15,1.41,1.41,0,0,0,1-.49,1.55,1.55,0,0,0,.37-1.13,6.13,6.13,0,0,0-.43-1.81,9.26,9.26,0,0,1-.61-2.79,4.5,4.5,0,0,1,.8-2.62,2.88,2.88,0,0,1,2.53-1.15,1.71,1.71,0,0,1,1.19.41,1.29,1.29,0,0,1,.45,1,1,1,0,0,1-.22.65.68.68,0,0,1-.51.25,1.34,1.34,0,0,1-1-.56,3.18,3.18,0,0,0-.58-.62,1.05,1.05,0,0,0-.44-.07.77.77,0,0,0-.59.29,1,1,0,0,0-.26.7,9.78,9.78,0,0,0,.61,2.85,9.71,9.71,0,0,1,.61,2.87,2.6,2.6,0,0,1-.41,1.34,3.25,3.25,0,0,1-1.26,1.15A3.62,3.62,0,0,1,451.75,148.1Z" fill="#424142"/><path d="M450.41,145.65q.63,0,1,1a1.67,1.67,0,0,0,.39.63.66.66,0,0,0,.47.17,1.45,1.45,0,0,0,1-.51,1.59,1.59,0,0,0,.38-1.17,6.13,6.13,0,0,0-.43-1.83,9.16,9.16,0,0,1-.61-2.77,4.43,4.43,0,0,1,.79-2.59,2.82,2.82,0,0,1,2.49-1.13,1.65,1.65,0,0,1,1.16.39,1.24,1.24,0,0,1,.43,1,.9.9,0,0,1-.21.62.63.63,0,0,1-.48.23,1.29,1.29,0,0,1-1-.54,3.45,3.45,0,0,0-.6-.63,1.1,1.1,0,0,0-.47-.08.82.82,0,0,0-.63.31,1.07,1.07,0,0,0-.27.74,9.79,9.79,0,0,0,.61,2.87,9.6,9.6,0,0,1,.61,2.85,2.54,2.54,0,0,1-.4,1.32,3.18,3.18,0,0,1-1.24,1.13,3.55,3.55,0,0,1-1.73.46,2.38,2.38,0,0,1-1.59-.46,1.4,1.4,0,0,1-.53-1.09.88.88,0,0,1,.22-.62A.74.74,0,0,1,450.41,145.65Z" fill="#424142"/><path d="M459.62,148.29a1.46,1.46,0,0,1-1.18-.63,3.58,3.58,0,0,1-.63-2.24,7.15,7.15,0,0,1,.18-1.47,8.17,8.17,0,0,1,.43-1.43,14.23,14.23,0,0,1,.85-1.68l1-1.42c.64-.68,1-1.06,1.07-1.13a3.68,3.68,0,0,1,.91-.59,2.37,2.37,0,0,1,1-.2,1.49,1.49,0,0,1,1.13.54,1.94,1.94,0,0,1,.48,1.34,3,3,0,0,1-.37,1.4,3,3,0,0,1-.79,1l-1.06.69a8.33,8.33,0,0,1-1,.33c-.52.16-1.19.32-2,.48a7.35,7.35,0,0,0-.38,2.28,2.14,2.14,0,0,0,.4,1.35.81.81,0,0,0,.68.34,1,1,0,0,0,.47-.11,3.21,3.21,0,0,0,.79-.56,5.84,5.84,0,0,0,.7-.85,4.89,4.89,0,0,0,.59-1.18l.22,0,.35,0a5.53,5.53,0,0,1-1.85,2.87A3,3,0,0,1,459.62,148.29Zm3.52-10.3a1.33,1.33,0,0,0-.78.38,8.24,8.24,0,0,0-1.64,2.28,10.71,10.71,0,0,0-.85,2,10.08,10.08,0,0,0,1.2-.38,6.66,6.66,0,0,0,1.23-.69,3.35,3.35,0,0,0,.69-.68,3.76,3.76,0,0,0,.59-1,2.94,2.94,0,0,0,.2-1.07.84.84,0,0,0-.2-.58A.59.59,0,0,0,463.13,138Z" fill="#424142"/><path d="M459.6,143.25a6.77,6.77,0,0,0-.42,2.33,2.18,2.18,0,0,0,.41,1.38.86.86,0,0,0,.72.35,1,1,0,0,0,.5-.11,3.26,3.26,0,0,0,.81-.57,5.86,5.86,0,0,0,.71-.86,4.91,4.91,0,0,0,.6-1.19h.18l.34,0a6,6,0,0,1-1.88,2.78,2.89,2.89,0,0,1-1.94.85,1.4,1.4,0,0,1-1.14-.61,3.51,3.51,0,0,1-.62-2.21A7.1,7.1,0,0,1,458,144a8.13,8.13,0,0,1,.43-1.42,14.09,14.09,0,0,1,.85-1.68l1-1.42q1-1,1.07-1.12a3.61,3.61,0,0,1,.89-.58,2.31,2.31,0,0,1,.93-.2,1.43,1.43,0,0,1,1.09.52,1.89,1.89,0,0,1,.47,1.31,2.9,2.9,0,0,1-.36,1.38,3,3,0,0,1-.78,1l-1.05.69a8.36,8.36,0,0,1-1,.32Q460.82,143,459.6,143.25Zm.22-.65a3.74,3.74,0,0,0,1.27-.32,6.66,6.66,0,0,0,1.24-.7,3.41,3.41,0,0,0,.7-.69,3.8,3.8,0,0,0,.6-1,3,3,0,0,0,.2-1.09.88.88,0,0,0-.22-.61.64.64,0,0,0-.48-.24,1.37,1.37,0,0,0-.81.39,8.26,8.26,0,0,0-1.65,2.3A10.68,10.68,0,0,0,459.82,142.6Z" fill="#424142"/><path d="M477.42,148.06h-4l-.62,0-1.09,0h-1.1l-.06-.44,1.23-.1.78-.1.94-.2a2.8,2.8,0,0,1,.08-.51c.46-2.29.76-3.86.91-4.81l.78-4.3c0-.1.08-.5.19-1.25l.42-2.14a10.68,10.68,0,0,0,.18-1.35c0-.11,0-.22,0-.33a.44.44,0,0,0-.19-.4,4,4,0,0,0-1.44-.21l-.81-.05a1.05,1.05,0,0,1,0-.53l1.59,0h1.89l1.05,0,8.91-.1.58,0h.46a7,7,0,0,1-.22,1.63,7.23,7.23,0,0,1-.33,1.25h0a.44.44,0,0,1-.35-.15,9.17,9.17,0,0,1-.16-1c0-.4,0-.63-.05-.69a2.72,2.72,0,0,0-.12-.38l-.66-.06-.39,0h-.48l-.32,0h-.41l-.87.06h-3.42l-1.26,0a3.56,3.56,0,0,0-.57.09l-.42.17a2.76,2.76,0,0,1-.12.69l-.3,1.61-.27,1.5,0,.36c-.2,1-.33,1.74-.38,2.16,0,.12,0,.25,0,.38a26.12,26.12,0,0,1,3.52-.31c2.37-.13,3.65-.22,3.79-.27a1.62,1.62,0,0,0,.75-.38,8.34,8.34,0,0,0,1-1.78l.52-.09a19.23,19.23,0,0,1-.48,2.71,6.26,6.26,0,0,0-.13.68c0,.21-.11.54-.23,1,0,.18-.07.33-.09.43a3.75,3.75,0,0,1-.14.69h-.53l0-.1a1.29,1.29,0,0,1,0-.26,4.24,4.24,0,0,0,.06-.88,1.59,1.59,0,0,0-.25-1.07,1.72,1.72,0,0,0-1.13-.25,15.2,15.2,0,0,0-2.11.18c-.62,0-1.52.06-2.66.14l-.89.06-.24,0a3,3,0,0,0-.54,0l-.32,0c-.09.65-.19,1.14-.26,1.42-.18.71-.3,1.28-.37,1.68l-.72,3.8a2.41,2.41,0,0,0,0,.38.76.76,0,0,0,.08.3,1.4,1.4,0,0,0,.47.27,4.34,4.34,0,0,0,.92.08h.85l2.5-.11h.33a10.59,10.59,0,0,0,1.67-.15l.61-.08a6,6,0,0,0,2.86-1.13,4.83,4.83,0,0,0,1.49-2.14l.22,0,.23,0c-.05.48-.43,1.8-1.07,4-.95.06-2.26.07-4,.07l-1.86,0h-.54l-1.59.05Z" fill="#424142"/><path d="M473.5,147.27q0-.22.11-.55.68-3.38.91-4.81l.78-4.3q0-.15.19-1.26l.42-2.13a10.67,10.67,0,0,0,.18-1.36c0-.11,0-.22,0-.33a.49.49,0,0,0-.22-.44,4.36,4.36,0,0,0-1.46-.22l-.81-.05a1.92,1.92,0,0,1,.09-.47h3.43l1.05,0,8.91-.1.57,0h.47q0,.33-.27,1.57a7.18,7.18,0,0,1-.33,1.24.51.51,0,0,1-.32-.17q-.14-.76-.15-1c0-.41,0-.64-.05-.69a2.82,2.82,0,0,0-.13-.39,5,5,0,0,0-.71-.09l-.39,0h-.48l-.33,0h-.41l-.87.06h-3.42l-1.27,0a3.52,3.52,0,0,0-.58.09l-.43.18a5.59,5.59,0,0,1-.14.72l-.3,1.61-.27,1.5,0,.37q-.3,1.52-.38,2.16,0,.18,0,.38.65-.09,3.58-.25,3.57-.2,3.8-.27A1.66,1.66,0,0,0,485,138a8.29,8.29,0,0,0,1-1.79l.48-.06q-.11.72-.53,2.65a6.43,6.43,0,0,0-.13.69q-.05.3-.23,1c0,.19-.07.33-.09.43a3.74,3.74,0,0,1-.14.69l-.44,0v-.06a1.42,1.42,0,0,1,0-.24,4.23,4.23,0,0,0,.06-.89,1.62,1.62,0,0,0-.27-1.1,1.74,1.74,0,0,0-1.17-.27,15.1,15.1,0,0,0-2.12.18q-.94,0-2.66.14l-.89.06-.24,0a3,3,0,0,0-.55,0l-.32,0q-.2,1-.3,1.46-.27,1.07-.37,1.69l-.72,3.8a2.43,2.43,0,0,0,0,.39.8.8,0,0,0,.09.32,1.39,1.39,0,0,0,.51.3,4.31,4.31,0,0,0,.94.08h.85l2-.09.49,0h.33a10.57,10.57,0,0,0,1.68-.15l.61-.08a6,6,0,0,0,2.88-1.14,4.86,4.86,0,0,0,1.5-2.16h.18l.22,0q-.14.62-1.1,3.95-1.35,0-3.94,0l-1.86,0h-.54l-1.59.05-1.15,0h-4l-.62,0-1.09,0h-1.1v-.39l1.18-.05.79-.1Z" fill="#424142"/><path d="M490.05,148.21a.49.49,0,0,1-.37-.13.45.45,0,0,1-.12-.33,30.22,30.22,0,0,1,2-5.26c.41-.94.85-2,1.29-3.22.78-2.11,1.39-3.63,1.82-4.52a15,15,0,0,0,.92-2.42.87.87,0,0,0,0-.17.41.41,0,0,0-.16-.3,2.93,2.93,0,0,0-1.06-.38v-.42a21.06,21.06,0,0,1,2.41-.17h.56l0,.22-.4,1.25c0,.05-.37.94-.93,2.35l-1.71,4.47c-.3.83-.82,2.14-1.52,3.89l-.42,1.1a10,10,0,0,1-.72,1.63,2.28,2.28,0,0,0-.41,1l0,.19a2.84,2.84,0,0,0,.95-.6,8,8,0,0,0,1.62-1.91,1.45,1.45,0,0,1,.41-.07h.15a5,5,0,0,1-1,1.59,11.57,11.57,0,0,1-1.2,1.16,6.92,6.92,0,0,1-1.41.86A2.11,2.11,0,0,1,490.05,148.21Z" fill="#424142"/><path d="M494.45,131.43l0-.37q1.56-.13,2.36-.13h.56v.17l-.39,1.23s-.33.82-.93,2.35l-1.71,4.47q-.46,1.26-1.52,3.88l-.42,1.1a9.84,9.84,0,0,1-.71,1.63,2.3,2.3,0,0,0-.42,1l.05.2a2,2,0,0,0,1-.57,8,8,0,0,0,1.63-1.92,1.88,1.88,0,0,1,.37-.05h.14a6.59,6.59,0,0,1-1,1.51,11.52,11.52,0,0,1-1.19,1.16,6.86,6.86,0,0,1-1.4.85,2.06,2.06,0,0,1-.84.19.44.44,0,0,1-.33-.11.4.4,0,0,1-.11-.29,30.81,30.81,0,0,1,2-5.24q.62-1.41,1.29-3.22,1.18-3.17,1.82-4.52a14.93,14.93,0,0,0,.93-2.42.86.86,0,0,0,0-.18.46.46,0,0,0-.18-.34A2.94,2.94,0,0,0,494.45,131.43Z" fill="#424142"/><path d="M497.26,148.29a1.46,1.46,0,0,1-1.18-.63,3.58,3.58,0,0,1-.63-2.24,7.15,7.15,0,0,1,.18-1.47,8.17,8.17,0,0,1,.43-1.43,14.19,14.19,0,0,1,.85-1.68l1-1.42c.64-.68,1-1.06,1.07-1.13a3.68,3.68,0,0,1,.91-.59,2.37,2.37,0,0,1,1-.2A1.49,1.49,0,0,1,502,138a1.94,1.94,0,0,1,.48,1.34,3,3,0,0,1-.37,1.4,3,3,0,0,1-.79,1l-1.06.69a8.33,8.33,0,0,1-1,.33c-.52.16-1.19.32-2,.48a7.35,7.35,0,0,0-.38,2.28,2.14,2.14,0,0,0,.4,1.35.81.81,0,0,0,.68.34,1,1,0,0,0,.47-.11,3.21,3.21,0,0,0,.79-.56,5.84,5.84,0,0,0,.7-.85,4.89,4.89,0,0,0,.59-1.18l.22,0,.35,0a5.53,5.53,0,0,1-1.85,2.87A3,3,0,0,1,497.26,148.29Zm3.52-10.3a1.33,1.33,0,0,0-.78.38,8.24,8.24,0,0,0-1.64,2.28,10.71,10.71,0,0,0-.85,2,10.08,10.08,0,0,0,1.2-.38,6.66,6.66,0,0,0,1.23-.69,3.35,3.35,0,0,0,.69-.68,3.76,3.76,0,0,0,.59-1,2.94,2.94,0,0,0,.2-1.07.84.84,0,0,0-.2-.58A.59.59,0,0,0,500.78,138Z" fill="#424142"/><path d="M497.25,143.25a6.77,6.77,0,0,0-.42,2.33,2.18,2.18,0,0,0,.41,1.38.86.86,0,0,0,.72.35,1,1,0,0,0,.5-.11,3.26,3.26,0,0,0,.81-.57,5.86,5.86,0,0,0,.71-.86,4.91,4.91,0,0,0,.6-1.19h.18l.34,0a6,6,0,0,1-1.88,2.78,2.89,2.89,0,0,1-1.94.85,1.4,1.4,0,0,1-1.14-.61,3.51,3.51,0,0,1-.62-2.21,7.1,7.1,0,0,1,.18-1.46,8.13,8.13,0,0,1,.43-1.42,14.09,14.09,0,0,1,.85-1.68l1-1.42q1-1,1.07-1.12a3.61,3.61,0,0,1,.89-.58,2.31,2.31,0,0,1,.93-.2,1.43,1.43,0,0,1,1.09.52,1.89,1.89,0,0,1,.47,1.31,2.9,2.9,0,0,1-.36,1.38,3,3,0,0,1-.78,1l-1.05.69a8.36,8.36,0,0,1-1,.32Q498.46,143,497.25,143.25Zm.22-.65a3.74,3.74,0,0,0,1.27-.32,6.66,6.66,0,0,0,1.24-.7,3.41,3.41,0,0,0,.7-.69,3.8,3.8,0,0,0,.6-1,3,3,0,0,0,.2-1.09.88.88,0,0,0-.22-.61.64.64,0,0,0-.48-.24,1.37,1.37,0,0,0-.81.39,8.26,8.26,0,0,0-1.65,2.3A10.68,10.68,0,0,0,497.46,142.6Z" fill="#424142"/><path d="M504.33,148.15a1.12,1.12,0,0,1-.94-.44A2.9,2.9,0,0,1,503,146a8.12,8.12,0,0,1,.49-2.49,11.05,11.05,0,0,1,1.45-2.83,14.78,14.78,0,0,1,1.56-2,5.54,5.54,0,0,1,1.49-1,2.61,2.61,0,0,1,1.14-.3,1.29,1.29,0,0,1,1,.48,1.63,1.63,0,0,1,.43,1.12.88.88,0,0,1-.21.62.67.67,0,0,1-.5.23,1.43,1.43,0,0,1-.42-.08,1.85,1.85,0,0,1-.32-.3,3.7,3.7,0,0,1-.25-.5,1.87,1.87,0,0,0-.26-.47.41.41,0,0,0-.28-.13,1.36,1.36,0,0,0-.92.53,11.38,11.38,0,0,0-1.89,3.29,10.48,10.48,0,0,0-1,3.81,1.38,1.38,0,0,0,.16.77.38.38,0,0,0,.33.14,1.68,1.68,0,0,0,1.05-.52,9.74,9.74,0,0,0,1.61-2,1.58,1.58,0,0,1,.42-.07h.2a3.2,3.2,0,0,1-.67,1.28,7.59,7.59,0,0,1-1.76,2A2.71,2.71,0,0,1,504.33,148.15Z" fill="#424142"/><path d="M509.38,139.69a1.87,1.87,0,0,1-.29-.28,3.83,3.83,0,0,1-.24-.49,2,2,0,0,0-.27-.49.47.47,0,0,0-.32-.14,1.39,1.39,0,0,0-1,.54,11.34,11.34,0,0,0-1.9,3.31,10.47,10.47,0,0,0-1,3.83,1.43,1.43,0,0,0,.16.8.44.44,0,0,0,.37.17,1.71,1.71,0,0,0,1.09-.53,9.76,9.76,0,0,0,1.62-2,2,2,0,0,1,.38-.05h.19a6,6,0,0,1-.71,1.21,7.52,7.52,0,0,1-1.75,1.95,2.65,2.65,0,0,1-1.47.55,1.06,1.06,0,0,1-.9-.42A2.84,2.84,0,0,1,503,146a8,8,0,0,1,.49-2.47,10.94,10.94,0,0,1,1.44-2.81,14.66,14.66,0,0,1,1.56-1.95,5.45,5.45,0,0,1,1.48-1,2.56,2.56,0,0,1,1.12-.29,1.24,1.24,0,0,1,.95.46,1.58,1.58,0,0,1,.41,1.09.83.83,0,0,1-.2.59.62.62,0,0,1-.46.21A1.4,1.4,0,0,1,509.38,139.69Z" fill="#424142"/><path d="M510.54,148.1A.72.72,0,0,1,510,148a.54.54,0,0,1-.17-.42,6,6,0,0,1,.61-1.73l.53-1.18,1.87-4.51q.36-.87.58-1.53l-.73.07h-.36l-.82,0h-.17a1.18,1.18,0,0,1,.17-.72c1.27-.06,2-.09,2.24-.12a8.39,8.39,0,0,1,.38-.95c.25-.55.51-1.21.77-2a5.57,5.57,0,0,1,.28-.68,2.94,2.94,0,0,1,.69-.07,2.68,2.68,0,0,1,.59.06l.06.25a13.86,13.86,0,0,1-1.12,2.82,5,5,0,0,0-.21.59h1.07l1.2,0a1.13,1.13,0,0,1-.11.76,8.94,8.94,0,0,1-1.36.08h-.51a2.48,2.48,0,0,0-.72.12l-2,4.93c-.23.47-.61,1.36-1.18,2.73a.38.38,0,0,0,.07.13h.13a1.44,1.44,0,0,0,.81-.42A15.13,15.13,0,0,0,514.7,144a1.07,1.07,0,0,1,.45.26,20.15,20.15,0,0,1-1.76,2.1,9.79,9.79,0,0,1-1.29,1,8.55,8.55,0,0,1-1,.6A1.6,1.6,0,0,1,510.54,148.1Z" fill="#424142"/><path d="M513.52,138.59h-1.13l-.83,0h-.17a1.78,1.78,0,0,1,.22-.65q1.85-.05,2.2-.09.25-.61.42-1,.37-.83.77-2a5.6,5.6,0,0,1,.27-.67,4.86,4.86,0,0,1,.65,0,2.62,2.62,0,0,1,.58.06l0,.2a20.64,20.64,0,0,1-1.12,2.79,5,5,0,0,0-.21.6l.43.06h.69l1.21,0a1.37,1.37,0,0,1-.15.69q-.5.05-1.32.05h-.51a2.71,2.71,0,0,0-.74.13l-2.07,5q-.35.72-1.18,2.73a.31.31,0,0,0,.08.18l.17,0a1.46,1.46,0,0,0,.85-.43,15.14,15.14,0,0,0,2.08-2.22,1.75,1.75,0,0,1,.37.27q-1.25,1.54-1.76,2a9.68,9.68,0,0,1-1.29,1,8.63,8.63,0,0,1-.94.59,1.55,1.55,0,0,1-.58.11.67.67,0,0,1-.46-.13.49.49,0,0,1-.15-.39,6.1,6.1,0,0,1,.61-1.71l.53-1.18,1.87-4.51Q513.3,139.25,513.52,138.59Z" fill="#424142"/><path d="M517.38,148.17a.8.8,0,0,1-.52-.13.44.44,0,0,1-.16-.35,1.72,1.72,0,0,1,.13-.6c.36-.88,1-2.54,1.75-4.91l.89-2.72c.06-.24.1-.4.13-.47l.08-.19s0-.11-.24-.27c-.22.2-.48.44-.72.71,0,0-.24.3-1.15,1.52l-.56,0a5.43,5.43,0,0,1,1.14-1.77,6.54,6.54,0,0,1,1.51-1.38,2.12,2.12,0,0,1,.93-.29.89.89,0,0,1,.48.26.62.62,0,0,1,.13.4,1.9,1.9,0,0,1-.05.44,20,20,0,0,1-.56,2c-.28.86-.53,1.55-.75,2l-.66,1.56,0,.09a9.85,9.85,0,0,1,.6-1.26,25.43,25.43,0,0,1,3-4.85,2.24,2.24,0,0,1,1.61-.67,1.45,1.45,0,0,1,1,.42,1.17,1.17,0,0,1,.35.88,1.52,1.52,0,0,1-.38,1,1,1,0,0,1-.76.31.75.75,0,0,1-.59-.2,1.8,1.8,0,0,1-.21-1c-.1-.18-.2-.28-.32-.28a.61.61,0,0,0-.4.2,18.91,18.91,0,0,0-2.29,3.48,33.84,33.84,0,0,0-2.11,4.09,10.16,10.16,0,0,1-.7,1.59A.61.61,0,0,1,517.38,148.17Z" fill="#424142"/><path d="M519.46,138.5a5.13,5.13,0,0,0-.79.71q-.1.11-1.16,1.52l-.52,0a7.86,7.86,0,0,1,1.18-1.69,6.47,6.47,0,0,1,1.49-1.37,2.06,2.06,0,0,1,.91-.28.84.84,0,0,1,.44.24.57.57,0,0,1,.12.36,1.82,1.82,0,0,1-.05.43,20.12,20.12,0,0,1-.55,2q-.42,1.29-.74,2l-.66,1.56-.05.23q.18-.3.72-1.36a25.28,25.28,0,0,1,3-4.84,2.19,2.19,0,0,1,1.57-.65,1.39,1.39,0,0,1,1,.41,1.11,1.11,0,0,1,.33.84,1.47,1.47,0,0,1-.37,1,.91.91,0,0,1-.72.29.7.7,0,0,1-.55-.18,1.78,1.78,0,0,1-.2-.92c-.11-.22-.23-.33-.37-.33a.65.65,0,0,0-.43.22,18.85,18.85,0,0,0-2.3,3.49,33.74,33.74,0,0,0-2.12,4.09,10,10,0,0,1-.69,1.58.56.56,0,0,1-.52.22.76.76,0,0,1-.49-.12.39.39,0,0,1-.14-.31,1.65,1.65,0,0,1,.13-.58q.55-1.33,1.75-4.91l.89-2.72q.09-.36.13-.46l.08-.19C519.72,138.74,519.63,138.64,519.46,138.5Z" fill="#424142"/><path d="M527.55,148.17a2.11,2.11,0,0,1-1.7-.79,3.8,3.8,0,0,1-.65-2.44,8,8,0,0,1,.5-2.56A7.67,7.67,0,0,1,527,140l.4-.52A6.39,6.39,0,0,1,529,138a3.52,3.52,0,0,1,1.92-.6,1.93,1.93,0,0,1,1.54.76,3.94,3.94,0,0,1,.62,2.48,8.35,8.35,0,0,1-1.79,5.26C530.1,147.4,528.84,148.17,527.55,148.17Zm3.64-10.11a2.21,2.21,0,0,0-1.52.86,12.43,12.43,0,0,0-2.38,4,10.07,10.07,0,0,0-.81,3.41.95.95,0,0,0,1.11,1.09,1.74,1.74,0,0,0,1.17-.57,15.4,15.4,0,0,0,3.26-7.73,1.21,1.21,0,0,0-.25-.81A.73.73,0,0,0,531.19,138.07Z" fill="#424142"/><path d="M533,140.61a8.27,8.27,0,0,1-1.78,5.23q-1.78,2.29-3.7,2.29a2.05,2.05,0,0,1-1.66-.77,3.75,3.75,0,0,1-.63-2.41,8,8,0,0,1,.5-2.55A7.6,7.6,0,0,1,527,140l.41-.52A6.3,6.3,0,0,1,529,138a3.46,3.46,0,0,1,1.89-.6,1.87,1.87,0,0,1,1.5.74A3.87,3.87,0,0,1,533,140.61Zm-6.6,5.78a1,1,0,0,0,1.16,1.14,1.78,1.78,0,0,0,1.21-.58,15.44,15.44,0,0,0,3.28-7.77,1.25,1.25,0,0,0-.27-.84.79.79,0,0,0-.61-.31,2.24,2.24,0,0,0-1.56.88,12.44,12.44,0,0,0-2.39,4.06A10.07,10.07,0,0,0,526.43,146.39Z" fill="#424142"/><path d="M539.93,148.24a.75.75,0,0,1-.49-.14.41.41,0,0,1-.17-.32,5.82,5.82,0,0,1,.65-2.1l1.84-4,.71-1.69a5.66,5.66,0,0,0,.29-.77,1.8,1.8,0,0,0,0-.42.31.31,0,0,0-.08-.23.25.25,0,0,0-.19-.08.88.88,0,0,0-.44.16,8.61,8.61,0,0,0-2.06,1.91,31.3,31.3,0,0,0-2.16,2.8,34.77,34.77,0,0,0-2.32,4.3,1.32,1.32,0,0,1-.38.54,2.65,2.65,0,0,1-.44,0,3.14,3.14,0,0,1-.52-.06.37.37,0,0,1-.09-.21,1.85,1.85,0,0,1,.13-.47c.18-.55.65-1.72,1.37-3.48l.29-.69,1.62-4.3a.26.26,0,0,0-.06-.08h0c-.49,0-1.16.69-2.06,2a1.08,1.08,0,0,1-.25,0h-.26a5.25,5.25,0,0,1,.83-1.43,7.24,7.24,0,0,1,1.29-1.36,6,6,0,0,1,1.3-.81,1,1,0,0,1,.39-.09h.2a.7.7,0,0,1,.27.52,1.56,1.56,0,0,1,0,.31q0,.15-.13.48-.38,1.09-.56,1.54l-.72,1.88q-.2.51-.39,1.06a37.52,37.52,0,0,1,2.53-3.29,10.74,10.74,0,0,1,2.27-2.12,2.36,2.36,0,0,1,1.23-.4,1,1,0,0,1,.71.25.86.86,0,0,1,.26.64,2,2,0,0,1-.05.46,9.73,9.73,0,0,1-.4,1.35c-.21.58-.75,1.84-1.6,3.75L541,146.65l0,.16a.63.63,0,0,0,.08.19c.4-.12,1.11-.87,2-2.26h.56a8.2,8.2,0,0,1-1.26,1.91,5.77,5.77,0,0,1-1.51,1.33A1.87,1.87,0,0,1,539.93,148.24Z" fill="#424142"/><path d="M537.6,139a.26.26,0,0,0-.07-.14.16.16,0,0,0-.11,0q-.66,0-2.06,2.08h-.46a9.6,9.6,0,0,1,.87-1.35,7.14,7.14,0,0,1,1.28-1.35,5.91,5.91,0,0,1,1.29-.81.93.93,0,0,1,.37-.09h.19a.67.67,0,0,1,.23.47,1.54,1.54,0,0,1,0,.31q0,.15-.13.47-.38,1.09-.56,1.54l-.72,1.88q-.25.65-.5,1.37l.18-.24a37.26,37.26,0,0,1,2.55-3.31,10.63,10.63,0,0,1,2.26-2.11,2.3,2.3,0,0,1,1.21-.39.93.93,0,0,1,.67.23.81.81,0,0,1,.24.6,1.91,1.91,0,0,1-.05.44,9.62,9.62,0,0,1-.39,1.35q-.31.86-1.6,3.74L541,146.63l-.05.17a.52.52,0,0,0,.09.23q.71-.15,2.13-2.26h.52a13.77,13.77,0,0,1-1.29,1.83,5.69,5.69,0,0,1-1.5,1.32,1.82,1.82,0,0,1-1,.27.7.7,0,0,1-.46-.13.36.36,0,0,1-.15-.28,5.75,5.75,0,0,1,.65-2.08l1.84-4,.71-1.69a5.66,5.66,0,0,0,.29-.77,1.86,1.86,0,0,0,.05-.43.37.37,0,0,0-.09-.26.3.3,0,0,0-.23-.1.93.93,0,0,0-.47.17,8.61,8.61,0,0,0-2.07,1.92,31.05,31.05,0,0,0-2.16,2.81,34.65,34.65,0,0,0-2.32,4.3,1.27,1.27,0,0,1-.37.52l-.41,0a3.08,3.08,0,0,1-.51-.06.39.39,0,0,1-.05-.17,1.88,1.88,0,0,1,.13-.46q.28-.83,1.37-3.48l.29-.69Z" fill="#424142"/><path d="M545.68,148.17A1,1,0,0,1,545,148a.61.61,0,0,1-.22-.49,10.22,10.22,0,0,1,1.44-3.71l2-3.86a8.26,8.26,0,0,0,.44-.93,1,1,0,0,0,.07-.27.73.73,0,0,0-.06-.21l-.33.07a5.66,5.66,0,0,0-.86.54,7.36,7.36,0,0,0-1.07,1l-.76.18a6.73,6.73,0,0,1,2.13-2.16,4,4,0,0,1,1.91-.76.65.65,0,0,1,.47.16.56.56,0,0,1,.16.41,5.66,5.66,0,0,1-.72,2.09q-.09.18-.42.91c-.51,1.11-1.05,2.17-1.63,3.15q-.28.48-.61,1.14-.18.36-.32.6a2.23,2.23,0,0,0-.39,1,.17.17,0,0,0,.05.12.19.19,0,0,0,.14.06,1,1,0,0,0,.4-.15A6.2,6.2,0,0,0,548,146a7,7,0,0,0,1.16-1.34l.6,0a6.4,6.4,0,0,1-1.1,1.66,6.22,6.22,0,0,1-1.72,1.43A2.72,2.72,0,0,1,545.68,148.17Zm4.8-14.29a1,1,0,0,1-.72-.29,1.06,1.06,0,0,1-.29-.78,1.16,1.16,0,0,1,.36-.83,1.14,1.14,0,0,1,.84-.36,1.06,1.06,0,0,1,.77.32,1,1,0,0,1,.32.73,1.4,1.4,0,0,1-.39,1A1.19,1.19,0,0,1,550.48,133.88Z" fill="#424142"/><path d="M548.79,138.5a1.49,1.49,0,0,0-.39,0,5.66,5.66,0,0,0-.88.55,7.35,7.35,0,0,0-1.08,1l-.74.17a8.06,8.06,0,0,1,2.17-2.07,4,4,0,0,1,1.88-.75.6.6,0,0,1,.44.15.51.51,0,0,1,.15.37,5.67,5.67,0,0,1-.71,2.07q-.09.18-.42.91-.76,1.66-1.63,3.15-.28.48-.61,1.14c-.12.24-.22.44-.32.6a2.26,2.26,0,0,0-.39,1,.22.22,0,0,0,.07.16.24.24,0,0,0,.17.07,1,1,0,0,0,.42-.15,6.2,6.2,0,0,0,1.14-.84,7,7,0,0,0,1.17-1.35h.56a10.54,10.54,0,0,1-1.13,1.57,6.15,6.15,0,0,1-1.71,1.42,2.66,2.66,0,0,1-1.27.41.94.94,0,0,1-.62-.17.57.57,0,0,1-.2-.45,10.31,10.31,0,0,1,1.43-3.68l2-3.86a8.32,8.32,0,0,0,.44-.94,1.11,1.11,0,0,0,.08-.29A.79.79,0,0,0,548.79,138.5Zm.72-5.7a1.1,1.1,0,0,1,.34-.79,1.09,1.09,0,0,1,.8-.35,1,1,0,0,1,.74.3,1,1,0,0,1,.3.7,1.35,1.35,0,0,1-.38.93,1.14,1.14,0,0,1-.84.24.93.93,0,0,1-.69-.28A1,1,0,0,1,549.51,132.8Z" fill="#424142"/><path d="M552.65,148.15a1.12,1.12,0,0,1-.94-.44,2.9,2.9,0,0,1-.43-1.75,8.12,8.12,0,0,1,.49-2.49,11.05,11.05,0,0,1,1.45-2.83,14.78,14.78,0,0,1,1.56-2,5.54,5.54,0,0,1,1.49-1,2.61,2.61,0,0,1,1.14-.3,1.29,1.29,0,0,1,1,.48,1.63,1.63,0,0,1,.43,1.12.88.88,0,0,1-.21.62.67.67,0,0,1-.5.23,1.43,1.43,0,0,1-.42-.08,1.85,1.85,0,0,1-.32-.3,3.7,3.7,0,0,1-.25-.5,1.87,1.87,0,0,0-.26-.47.41.41,0,0,0-.28-.13,1.36,1.36,0,0,0-.92.53,11.38,11.38,0,0,0-1.89,3.29,10.48,10.48,0,0,0-1,3.81,1.38,1.38,0,0,0,.16.77.38.38,0,0,0,.33.14,1.68,1.68,0,0,0,1.05-.52,9.74,9.74,0,0,0,1.61-2,1.58,1.58,0,0,1,.42-.07h.2a3.2,3.2,0,0,1-.67,1.28,7.59,7.59,0,0,1-1.76,2A2.71,2.71,0,0,1,552.65,148.15Z" fill="#424142"/><path d="M557.7,139.69a1.87,1.87,0,0,1-.29-.28,3.83,3.83,0,0,1-.24-.49,2,2,0,0,0-.27-.49.47.47,0,0,0-.32-.14,1.39,1.39,0,0,0-1,.54,11.34,11.34,0,0,0-1.9,3.31,10.47,10.47,0,0,0-1,3.83,1.43,1.43,0,0,0,.16.8.44.44,0,0,0,.37.17,1.71,1.71,0,0,0,1.09-.53,9.76,9.76,0,0,0,1.62-2,2,2,0,0,1,.38-.05h.19a6,6,0,0,1-.71,1.21,7.52,7.52,0,0,1-1.75,1.95,2.65,2.65,0,0,1-1.47.55,1.06,1.06,0,0,1-.9-.42,2.84,2.84,0,0,1-.42-1.72,8,8,0,0,1,.49-2.47,10.94,10.94,0,0,1,1.44-2.81,14.66,14.66,0,0,1,1.56-1.95,5.45,5.45,0,0,1,1.48-1,2.56,2.56,0,0,1,1.12-.29,1.24,1.24,0,0,1,.95.46,1.58,1.58,0,0,1,.41,1.09.83.83,0,0,1-.2.59.62.62,0,0,1-.46.21A1.4,1.4,0,0,1,557.7,139.69Z" fill="#424142"/><path d="M574.5,148.16a12.76,12.76,0,0,1-1.39-.08,6.51,6.51,0,0,0-.83-.07c-1.4,0-3.13,0-5.15.11a1.14,1.14,0,0,1,.16-.58,10.89,10.89,0,0,1,1.42-.15l.46-.11a1.35,1.35,0,0,0,.52-.17.76.76,0,0,0,.19-.29,21.7,21.7,0,0,0,.81-4.13l1.17-6.54c.37-2.1.57-3.49.61-4.13h-.79a17.67,17.67,0,0,0-3.18.18,3.16,3.16,0,0,0-1.25.57,9.26,9.26,0,0,0-1.44,1.7l-.49,0a2.19,2.19,0,0,1,.19-.72,25.48,25.48,0,0,0,1-2.86l.41,0h.17a.8.8,0,0,0,.33.37,1.83,1.83,0,0,0,.91.18h1.1l.5,0,1,0h1.38l.93-.05,1.27,0,1.07-.05H576l.9,0,.56,0,1.58,0a3.06,3.06,0,0,0,1.78-.47l.24,0h.27a13.22,13.22,0,0,1-.42,2.17c-.08.32-.14.58-.18.78s-.07.39-.14.7l-.22,0a1.42,1.42,0,0,1-.34,0,3.09,3.09,0,0,0-.58-2,3,3,0,0,0-2.05-.53,22,22,0,0,0-2.46.13,2.67,2.67,0,0,0-.53.12l-.06.22c-.11.42-.28,1.59-.52,3.6-.07.6-.39,2.49-1,5.61l-.94,4.6a3.84,3.84,0,0,1-.08.42,1.71,1.71,0,0,0-.07.39.26.26,0,0,0,.12.23,2.37,2.37,0,0,0,1,.16l1,.06a2.15,2.15,0,0,1,.59.08.27.27,0,0,1,.11.12l-.07.48Z" fill="#424142"/><path d="M567,130.86a.62.62,0,0,0,.31.36,1.87,1.87,0,0,0,.93.18h1.1l.5,0,1,0h1.38l.93-.05,1.26,0,1.07-.05H576l.91,0,.56,0,1.58,0a3.09,3.09,0,0,0,1.81-.48l.21,0h.28q-.23,1.26-.47,2.1c-.08.32-.14.59-.18.79s-.07.39-.14.7a2.66,2.66,0,0,1-.5-.06,2.87,2.87,0,0,0-.56-2,3,3,0,0,0-2.09-.55,22,22,0,0,0-2.47.13,2.72,2.72,0,0,0-.54.13l-.09.25q-.17.64-.52,3.61-.1.9-1,5.61l-.94,4.6a3.76,3.76,0,0,1-.08.42,1.76,1.76,0,0,0-.08.41.31.31,0,0,0,.14.27,2.39,2.39,0,0,0,1,.17l1,.06a2.62,2.62,0,0,1,.57.08.21.21,0,0,1,.09.1l-.06.41a12.57,12.57,0,0,1-1.38-.08,6.61,6.61,0,0,0-.84-.07q-2.11,0-5.15.11a2.26,2.26,0,0,1,.2-.51q.63-.09,1.38-.13l.47-.11a1.45,1.45,0,0,0,.55-.18.79.79,0,0,0,.2-.31,21.55,21.55,0,0,0,.81-4.14l1.17-6.54q.56-3.16.61-4.14a5.14,5.14,0,0,0-.84-.06,17.62,17.62,0,0,0-3.19.18,3.2,3.2,0,0,0-1.27.58,9.28,9.28,0,0,0-1.45,1.71l-.44-.05a6.29,6.29,0,0,1,.23-.65,25.32,25.32,0,0,0,1-2.87H567Z" fill="#424142"/><path d="M580.88,148.29a1.46,1.46,0,0,1-1.18-.63,3.58,3.58,0,0,1-.63-2.24,7.15,7.15,0,0,1,.18-1.47,8.17,8.17,0,0,1,.43-1.43,14.23,14.23,0,0,1,.85-1.68l1-1.42c.64-.68,1-1.06,1.07-1.13a3.68,3.68,0,0,1,.91-.59,2.37,2.37,0,0,1,1-.2,1.49,1.49,0,0,1,1.13.54,1.94,1.94,0,0,1,.48,1.34,3,3,0,0,1-.37,1.4,3,3,0,0,1-.79,1l-1.06.69a8.33,8.33,0,0,1-1,.33c-.52.16-1.19.32-2,.48a7.35,7.35,0,0,0-.38,2.28,2.14,2.14,0,0,0,.4,1.35.81.81,0,0,0,.68.34,1,1,0,0,0,.47-.11,3.21,3.21,0,0,0,.79-.56,5.84,5.84,0,0,0,.7-.85,4.89,4.89,0,0,0,.59-1.18l.22,0,.35,0a5.53,5.53,0,0,1-1.85,2.87A3,3,0,0,1,580.88,148.29ZM584.4,138a1.33,1.33,0,0,0-.78.38,8.24,8.24,0,0,0-1.64,2.28,10.71,10.71,0,0,0-.85,2,10.08,10.08,0,0,0,1.2-.38,6.66,6.66,0,0,0,1.23-.69,3.35,3.35,0,0,0,.69-.68,3.76,3.76,0,0,0,.59-1,2.94,2.94,0,0,0,.2-1.07.84.84,0,0,0-.2-.58A.59.59,0,0,0,584.4,138Z" fill="#424142"/><path d="M580.87,143.25a6.77,6.77,0,0,0-.42,2.33,2.18,2.18,0,0,0,.41,1.38.86.86,0,0,0,.72.35,1,1,0,0,0,.5-.11,3.26,3.26,0,0,0,.81-.57,5.86,5.86,0,0,0,.71-.86,4.91,4.91,0,0,0,.6-1.19h.18l.34,0a6,6,0,0,1-1.88,2.78,2.89,2.89,0,0,1-1.94.85,1.4,1.4,0,0,1-1.14-.61,3.51,3.51,0,0,1-.62-2.21,7.1,7.1,0,0,1,.18-1.46,8.13,8.13,0,0,1,.43-1.42,14.09,14.09,0,0,1,.85-1.68l1-1.42q1-1,1.07-1.12a3.61,3.61,0,0,1,.89-.58,2.31,2.31,0,0,1,.93-.2,1.43,1.43,0,0,1,1.09.52,1.89,1.89,0,0,1,.47,1.31,2.9,2.9,0,0,1-.36,1.38,3,3,0,0,1-.78,1l-1.05.69a8.36,8.36,0,0,1-1,.32Q582.09,143,580.87,143.25Zm.22-.65a3.74,3.74,0,0,0,1.27-.32,6.66,6.66,0,0,0,1.24-.7,3.41,3.41,0,0,0,.7-.69,3.8,3.8,0,0,0,.6-1,3,3,0,0,0,.2-1.09.88.88,0,0,0-.22-.61.64.64,0,0,0-.48-.24,1.37,1.37,0,0,0-.81.39,8.26,8.26,0,0,0-1.65,2.3A10.68,10.68,0,0,0,581.09,142.6Z" fill="#424142"/><path d="M586.77,148.12a1.22,1.22,0,0,1-.87-.33,1.09,1.09,0,0,1-.35-.82,1.6,1.6,0,0,1,.49-1.11,1.38,1.38,0,0,1,1-.52,2,2,0,0,1,.43.06.85.85,0,0,1-.07.33,2.8,2.8,0,0,0-.24.77.39.39,0,0,0,.13.28.4.4,0,0,0,.29.13.71.71,0,0,0,.31-.07,11.14,11.14,0,0,0,2-1.55c1-.86,1.71-1.58,2.23-2.13-.22-.43-.46-.89-.72-1.32l-1.31-2.21a1.92,1.92,0,0,0-.47-.5.55.55,0,0,0-.28-.08.38.38,0,0,0-.32.16c-.13,1.05-.23,1.68-.27,1.85a.88.88,0,0,1-.5-.48,2.78,2.78,0,0,1-.21-1.15,2.65,2.65,0,0,1,.39-1.33c.26-.45.55-.69.87-.69a1.56,1.56,0,0,1,1,.51,18.81,18.81,0,0,1,2.43,3.72q.27.48.38.64l2.37-2.22a28.17,28.17,0,0,1,2.57-2.12,2.85,2.85,0,0,1,.74-.37,1.09,1.09,0,0,1,.37-.07.64.64,0,0,1,.5.25,1,1,0,0,1,.21.67,2.1,2.1,0,0,1-.77,1.75,1.12,1.12,0,0,1-.46.16,1.72,1.72,0,0,1-.46-.08,2.74,2.74,0,0,0,.47-1,.52.52,0,0,0-.14-.35l-.18,0a1.34,1.34,0,0,0-.39.1,5.79,5.79,0,0,0-.83.5,17.61,17.61,0,0,0-2,1.61l-1.74,1.65c1.07,1.95,1.72,3.1,1.93,3.36a.61.61,0,0,0,.44.29.46.46,0,0,0,.35-.19c.24-.25.28-.37.28-.41l-.05-.85,0-.13.16,0a.35.35,0,0,1,.19.05,2.17,2.17,0,0,1,.35,1.3,3.71,3.71,0,0,1-.21.9,1.5,1.5,0,0,1-.47.73,1.06,1.06,0,0,1-.67.27,1.11,1.11,0,0,1-.64-.22,5.77,5.77,0,0,1-1-1.19l-1.28-2.21-.48-.75a7.3,7.3,0,0,1-1,1,27.28,27.28,0,0,1-3.33,2.9A2.51,2.51,0,0,1,586.77,148.12Z" fill="#424142"/><path d="M587.43,145.46l-.1.27a2.81,2.81,0,0,0-.24.79.44.44,0,0,0,.14.32.45.45,0,0,0,.33.14.75.75,0,0,0,.33-.07,11.1,11.1,0,0,0,2-1.56q1.45-1.3,2.23-2.13a11,11,0,0,0-.71-1.38l-1.31-2.21a2,2,0,0,0-.48-.52.6.6,0,0,0-.3-.09.43.43,0,0,0-.36.18q-.22,1.63-.28,1.87a1.14,1.14,0,0,1-.41-.48,2.72,2.72,0,0,1-.2-1.13,2.6,2.6,0,0,1,.38-1.31q.38-.66.83-.66a1.51,1.51,0,0,1,1,.5,18.68,18.68,0,0,1,2.42,3.71q.27.48.39.65l2.45-2.21a27.92,27.92,0,0,1,2.56-2.12,2.78,2.78,0,0,1,.72-.37,1,1,0,0,1,.36-.06.59.59,0,0,1,.46.23,1,1,0,0,1,.2.64,2,2,0,0,1-.75,1.71,1.09,1.09,0,0,1-.43.15,1.68,1.68,0,0,1-.44-.08,2.22,2.22,0,0,0,.51-.93.58.58,0,0,0-.15-.38l-.22,0a1.37,1.37,0,0,0-.41.1,5.78,5.78,0,0,0-.84.51,17.6,17.6,0,0,0-2,1.61l-1.74,1.65a35.45,35.45,0,0,0,1.93,3.43.64.64,0,0,0,.48.31.51.51,0,0,0,.39-.2q.29-.3.29-.44l-.05-.85,0-.11a.52.52,0,0,1,.27.06,2.14,2.14,0,0,1,.32,1.26,3.64,3.64,0,0,1-.2.89,1.44,1.44,0,0,1-.46.7,1,1,0,0,1-.63.26,1.06,1.06,0,0,1-.62-.21,5.84,5.84,0,0,1-1-1.17l-1.28-2.21-.48-.76-1.07,1a27.08,27.08,0,0,1-3.33,2.89,2.45,2.45,0,0,1-1.24.46,1.17,1.17,0,0,1-.84-.31,1,1,0,0,1-.33-.78,1.55,1.55,0,0,1,.48-1.08,1.33,1.33,0,0,1,.93-.5A1.92,1.92,0,0,1,587.43,145.46Z" fill="#424142"/><path d="M600.11,148.1a.72.72,0,0,1-.49-.15.54.54,0,0,1-.17-.42,6,6,0,0,1,.61-1.73l.53-1.18,1.87-4.51q.36-.87.58-1.53l-.73.07H602l-.82,0H601a1.18,1.18,0,0,1,.17-.72c1.27-.06,2-.09,2.24-.12a8.39,8.39,0,0,1,.38-.95c.25-.55.51-1.21.77-2a5.57,5.57,0,0,1,.28-.68,2.94,2.94,0,0,1,.69-.07,2.68,2.68,0,0,1,.59.06l.06.25A13.86,13.86,0,0,1,605,137.3a5,5,0,0,0-.21.59h1.07l1.2,0a1.13,1.13,0,0,1-.11.76,8.94,8.94,0,0,1-1.36.08h-.51a2.48,2.48,0,0,0-.72.12l-2,4.93c-.23.47-.61,1.36-1.18,2.73a.38.38,0,0,0,.07.13h.13a1.44,1.44,0,0,0,.81-.42,15.13,15.13,0,0,0,2.07-2.21,1.07,1.07,0,0,1,.45.26,20.15,20.15,0,0,1-1.76,2.1,9.79,9.79,0,0,1-1.29,1,8.55,8.55,0,0,1-1,.6A1.6,1.6,0,0,1,600.11,148.1Z" fill="#424142"/><path d="M603.1,138.59H602l-.83,0H601a1.78,1.78,0,0,1,.22-.65q1.85-.05,2.2-.09.25-.61.42-1,.37-.83.77-2a5.6,5.6,0,0,1,.27-.67,4.86,4.86,0,0,1,.65,0,2.62,2.62,0,0,1,.58.06l0,.2a20.64,20.64,0,0,1-1.12,2.79,5,5,0,0,0-.21.6l.43.06h.69l1.21,0a1.37,1.37,0,0,1-.15.69q-.5.05-1.32.05h-.51a2.71,2.71,0,0,0-.74.13l-2.07,5q-.35.72-1.18,2.73a.31.31,0,0,0,.08.18l.17,0a1.46,1.46,0,0,0,.85-.43,15.14,15.14,0,0,0,2.08-2.22,1.75,1.75,0,0,1,.37.27q-1.25,1.54-1.76,2a9.68,9.68,0,0,1-1.29,1,8.63,8.63,0,0,1-.94.59,1.55,1.55,0,0,1-.58.11.67.67,0,0,1-.46-.13.49.49,0,0,1-.15-.39,6.1,6.1,0,0,1,.61-1.71l.53-1.18,1.87-4.51Q602.88,139.25,603.1,138.59Z" fill="#424142"/><path d="M607.67,148.1a2.44,2.44,0,0,1-1.63-.47,1.46,1.46,0,0,1-.54-1.13.93.93,0,0,1,.23-.65.79.79,0,0,1,.61-.25c.44,0,.81.34,1.09,1a1.64,1.64,0,0,0,.38.61.62.62,0,0,0,.44.15,1.41,1.41,0,0,0,1-.49,1.55,1.55,0,0,0,.37-1.13,6.13,6.13,0,0,0-.43-1.81,9.26,9.26,0,0,1-.61-2.79,4.5,4.5,0,0,1,.8-2.62,2.88,2.88,0,0,1,2.53-1.15,1.71,1.71,0,0,1,1.19.41,1.29,1.29,0,0,1,.45,1,1,1,0,0,1-.22.65.68.68,0,0,1-.51.25,1.34,1.34,0,0,1-1-.56,3.18,3.18,0,0,0-.58-.62,1.05,1.05,0,0,0-.44-.07.77.77,0,0,0-.59.29,1,1,0,0,0-.26.7,9.78,9.78,0,0,0,.61,2.85,9.71,9.71,0,0,1,.61,2.87,2.6,2.6,0,0,1-.41,1.34,3.25,3.25,0,0,1-1.26,1.15A3.62,3.62,0,0,1,607.67,148.1Z" fill="#424142"/><path d="M606.34,145.65q.63,0,1,1a1.67,1.67,0,0,0,.39.63.66.66,0,0,0,.47.17,1.45,1.45,0,0,0,1-.51,1.59,1.59,0,0,0,.38-1.17,6.13,6.13,0,0,0-.43-1.83,9.16,9.16,0,0,1-.61-2.77,4.43,4.43,0,0,1,.79-2.59,2.82,2.82,0,0,1,2.49-1.13,1.65,1.65,0,0,1,1.16.39,1.24,1.24,0,0,1,.43,1,.9.9,0,0,1-.21.62.63.63,0,0,1-.48.23,1.29,1.29,0,0,1-1-.54,3.45,3.45,0,0,0-.6-.63,1.1,1.1,0,0,0-.47-.08.82.82,0,0,0-.63.31,1.07,1.07,0,0,0-.27.74,9.79,9.79,0,0,0,.61,2.87,9.6,9.6,0,0,1,.61,2.85,2.54,2.54,0,0,1-.4,1.32,3.18,3.18,0,0,1-1.24,1.13,3.55,3.55,0,0,1-1.73.46,2.38,2.38,0,0,1-1.59-.46,1.4,1.4,0,0,1-.53-1.09.88.88,0,0,1,.22-.62A.74.74,0,0,1,606.34,145.65Z" fill="#424142"/><path d="M80,44.12a38.93,38.93,0,0,0,2.57-6.86c.85-3.43.85-8.71-2.57-8.71s-3.42,5-2.67,8.27A37.92,37.92,0,0,0,80,44.12Z" fill="none"/><path d="M76.94,126.38a40.42,40.42,0,0,0-7.57.56c-3.5.66-8.34,2.86-7.08,5.88s6.51,1,9.54-1.23a42.57,42.57,0,0,0,5.57-5Z" fill="none"/><path d="M77,45.6l.44-.18a42.08,42.08,0,0,0-5.57-5c-3-2.21-8.21-4.38-9.54-1.23s3.58,5.21,7.08,5.88A40.68,40.68,0,0,0,77,45.6Z" fill="none"/><path d="M39.48,88.64a42.55,42.55,0,0,0-5,5.57c-2.2,3-4.38,8.22-1.23,9.54s5.21-3.58,5.87-7.07a40.6,40.6,0,0,0,.56-7.6C39.59,88.94,39.53,88.79,39.48,88.64Z" fill="none"/><path d="M39.48,83.34c.06-.15.12-.31.19-.46a40.41,40.41,0,0,0-.56-7.58c-.66-3.5-2.86-8.34-5.88-7.07s-1,6.51,1.23,9.54A42.27,42.27,0,0,0,39.48,83.34Z" fill="none"/><path d="M31.32,83.48c-3.43-.86-8.71-.86-8.71,2.57s5,3.42,8.27,2.68A38.26,38.26,0,0,0,38.18,86,39.27,39.27,0,0,0,31.32,83.48Z" fill="none"/><path d="M83.17,45.62a40.73,40.73,0,0,0,7.57-.56c3.5-.66,8.34-2.85,7.07-5.87s-6.51-1-9.54,1.23a42.24,42.24,0,0,0-5.56,5Z" fill="none"/><path d="M120.63,88.65c-.06.15-.13.31-.19.46a40.69,40.69,0,0,0,.56,7.58c.67,3.5,2.86,8.34,5.88,7.07s1-6.51-1.23-9.54A42.32,42.32,0,0,0,120.63,88.65Z" fill="none"/><path d="M129.23,83.27a38,38,0,0,0-7.3,2.68,38.9,38.9,0,0,0,6.86,2.57c3.43.85,8.71.85,8.71-2.57S132.51,82.53,129.23,83.27Z" fill="none"/><path d="M120.63,83.35a41.77,41.77,0,0,0,5-5.57c2.2-3,4.38-8.21,1.23-9.54s-5.21,3.58-5.88,7.07a41.24,41.24,0,0,0-.56,7.59C120.51,83,120.57,83.2,120.63,83.35Z" fill="none"/><path d="M80.1,127.88a38.9,38.9,0,0,0-2.57,6.86c-.85,3.43-.85,8.71,2.57,8.71,3.27,0,3.42-5,2.67-8.27A38.13,38.13,0,0,0,80.1,127.88Z" fill="none"/><path d="M83.15,126.39l-.45.18a42.29,42.29,0,0,0,5.57,5c3,2.2,8.22,4.38,9.54,1.23s-3.58-5.21-7.07-5.88A40.59,40.59,0,0,0,83.15,126.39Z" fill="none"/><path d="M130.52,79.59A36.38,36.38,0,0,0,124,82.86a42.1,42.1,0,0,0,5.39-4.74c4-4.32,7.34-12.21-.16-15.36-7.17-3-10.62,4.3-11,9.87a39.93,39.93,0,0,0,.3,7.69,7.36,7.36,0,0,0-11.76,3.32H87.45l22-22c2-2,6.39-5.31,9.27-6a11.94,11.94,0,0,1,8.86,2c.59.4.85.47,1,.29L131,55.53c.46-.47.39-.55-.28-1-3.24-2.68-6.88-5.94-10.5-9.56-3.45-3.45-5.81-6.19-8.74-9.67-.41-.41-.67-.48-.95-.2l-2.32,2.32c-.28.28-.2.54.29,1,1.87,2.24,1.69,6.52,1.52,8-.44,3.8-4.85,8.14-6.9,10.19l-20.7,20.7v-18a7.36,7.36,0,0,0,3.33-11.75,39.76,39.76,0,0,0,7.68.3c5.56-.42,12.88-3.87,9.87-11-3.15-7.5-11-4.18-15.36-.16A44.56,44.56,0,0,0,82.53,43a40.58,40.58,0,0,0,3.57-6.78C88.13,31,88.13,23,80,23c-7.78,0-8.12,7.6-6.35,12.57a36,36,0,0,0,3.26,6.55,42.47,42.47,0,0,0-4.74-5.38c-4.32-4-12.21-7.33-15.36.16-3,7.17,4.3,10.62,9.87,11a39.6,39.6,0,0,0,7.69-.3,7.36,7.36,0,0,0,3.32,11.77V78.6l-22-22c-2-2-5.31-6.38-6-9.26a12,12,0,0,1,2-8.86c.4-.59.47-.84.28-1L49.59,35c-.47-.47-.55-.38-1,.29-2.68,3.24-5.95,6.87-9.56,10.49-3.45,3.45-6.19,5.81-9.67,8.74-.41.41-.48.67-.2.95l2.32,2.32c.28.28.54.2,1-.29,2.24-1.87,6.52-1.69,8-1.51,3.8.44,8.15,4.86,10.19,6.9l20.7,20.7h-18a7.36,7.36,0,0,0-11.75-3.33,39.89,39.89,0,0,0,.3-7.69c-.43-5.56-3.87-12.88-11-9.87-7.49,3.15-4.18,11-.16,15.36A44.74,44.74,0,0,0,37,83.5a40.16,40.16,0,0,0-6.75-3.55c-5.21-2-13.25-2-13.25,6.1,0,7.78,7.59,8.12,12.57,6.35a36.32,36.32,0,0,0,6.53-3.25,42,42,0,0,0-5.37,4.73c-4,4.32-7.34,12.21.16,15.36,7.17,3,10.62-4.3,11-9.86a39.4,39.4,0,0,0-.3-7.69,7.36,7.36,0,0,0,11.76-3.32h18L51.16,108.58c-2,2-7.81,6.34-9.92,6.63-2.78.37-7.38-.51-8.71-1.65-.67-.48-.92-.55-1.2-.27L29,115.6c-.28.28-.38.54.37,1.11,3.32,2.76,6.56,5.44,10.26,9.14,3.45,3.45,6.46,7,9.63,10.75.48.67.75.56,1.13.19l2.23-2.23c.19-.19.21-.54-.2-.95-1.06-1.25-2.44-6.36-2.13-9.38s4.59-8,6.54-10L77.69,93.39v19.24a7.36,7.36,0,0,0-3.33,11.75,39.45,39.45,0,0,0-7.68-.3c-5.57.43-12.89,3.87-9.87,11,3.15,7.5,11,4.18,15.36.16A44.52,44.52,0,0,0,77.58,129,40.27,40.27,0,0,0,74,135.79C72,141,72,149,80.1,149c7.78,0,8.11-7.6,6.35-12.57a36.16,36.16,0,0,0-3.26-6.55,42.23,42.23,0,0,0,4.74,5.38c4.32,4,12.21,7.34,15.36-.16,3-7.17-4.31-10.62-9.87-11a39.61,39.61,0,0,0-7.69.3,7.35,7.35,0,0,0-3.32-11.76v-18l20.22,20.23c2,2,6.34,7.8,6.62,9.9.38,2.78-.51,7.39-1.65,8.71-.48.67-.56.92-.27,1.2l2.32,2.32c.28.28.55.38,1.11-.37,2.76-3.32,5.45-6.56,9.14-10.26,3.45-3.45,7-6.46,10.75-9.63.67-.49.56-.75.19-1.13l-2.23-2.23c-.18-.19-.54-.21-.95.2-1.24,1.06-6.36,2.44-9.38,2.14s-8-4.59-10-6.54L87.45,88.36h19.23a7.36,7.36,0,0,0,11.75,3.33,39.61,39.61,0,0,0-.3,7.68c.42,5.56,3.87,12.88,11,9.86,7.49-3.15,4.18-11,.16-15.36a44.35,44.35,0,0,0-6.25-5.39A40.42,40.42,0,0,0,129.84,92c5.21,2,13.24,2,13.24-6.1C143.08,78.17,135.49,77.83,130.52,79.59ZM33.23,68.24c3-1.27,5.21,3.58,5.88,7.07a40.41,40.41,0,0,1,.56,7.58c-.07.15-.13.3-.19.46a42.27,42.27,0,0,1-5-5.57C32.26,74.75,30.07,69.56,33.23,68.24ZM22.6,86c0-3.42,5.29-3.42,8.71-2.57A39.27,39.27,0,0,1,38.18,86a38.26,38.26,0,0,1-7.31,2.68C27.6,89.47,22.6,89.32,22.6,86ZM39.1,96.69c-.67,3.5-2.85,8.34-5.87,7.07s-1-6.51,1.23-9.54a42.55,42.55,0,0,1,5-5.57c.06.15.11.3.18.44A40.6,40.6,0,0,1,39.1,96.69ZM88.27,40.41c3-2.2,8.22-4.38,9.54-1.23s-3.58,5.21-7.07,5.87a40.73,40.73,0,0,1-7.57.56l-.46-.19A42.24,42.24,0,0,1,88.27,40.41ZM80,28.55c3.42,0,3.42,5.29,2.57,8.71A38.93,38.93,0,0,1,80,44.12a37.92,37.92,0,0,1-2.67-7.3C76.59,33.54,76.72,28.55,80,28.55ZM62.29,39.17c1.33-3.15,6.51-1,9.54,1.23a42.08,42.08,0,0,1,5.57,5L77,45.6A40.68,40.68,0,0,1,69.37,45C65.86,44.38,61,42.19,62.29,39.17Zm9.54,92.43c-3,2.2-8.21,4.38-9.54,1.23s3.58-5.22,7.08-5.88a40.42,40.42,0,0,1,7.57-.56l.46.19A42.57,42.57,0,0,1,71.83,131.59Zm8.27,11.85c-3.42,0-3.42-5.29-2.57-8.71a38.9,38.9,0,0,1,2.57-6.86,38.13,38.13,0,0,1,2.67,7.3C83.52,138.45,83.38,143.45,80.1,143.45Zm17.71-10.62c-1.32,3.15-6.51,1-9.54-1.23a42.29,42.29,0,0,1-5.57-5l.45-.18a40.59,40.59,0,0,1,7.59.56C94.24,127.62,99.08,129.81,97.81,132.83ZM121,75.31c.67-3.5,2.86-8.34,5.88-7.07s1,6.51-1.23,9.54a41.77,41.77,0,0,1-5,5.57c-.06-.15-.12-.3-.19-.45A41.24,41.24,0,0,1,121,75.31Zm5.87,28.45c-3,1.27-5.22-3.58-5.88-7.07a40.69,40.69,0,0,1-.56-7.58c.07-.15.13-.3.19-.46a42.32,42.32,0,0,1,5,5.56C127.85,97.25,130,102.43,126.87,103.76Zm1.92-15.24a38.9,38.9,0,0,1-6.86-2.57,38,38,0,0,1,7.3-2.68c3.28-.74,8.27-.6,8.27,2.68S132.22,89.37,128.79,88.52Z" fill="#3a528e"/><path d="M163.42,89.48a19.54,19.54,0,0,0-4.28,12.11,13.6,13.6,0,0,0,6.51,12,15,15,0,0,0,8.61,2.55,17.49,17.49,0,0,0,8.36-1.89q6.67-3.46,7.5-11.62a8.25,8.25,0,0,0,.08-1.15,15.46,15.46,0,0,0-1.69-6.59A18.53,18.53,0,0,0,183,88.41L168.2,76.71a11.87,11.87,0,0,1-4.86-9.8,14.39,14.39,0,0,1,3.87-10.18q3.87-4.16,10.46-4.16a34.74,34.74,0,0,1,7.17.82h3.3l.17,10.13h-.82a7.85,7.85,0,0,0-2.84-6.22A10.57,10.57,0,0,0,177.71,55a9.51,9.51,0,0,0-9.76,9.85,8.85,8.85,0,0,0,3.63,7.21l15.24,12q9.06,7.17,9.06,17.3a17,17,0,0,1-6,13q-5.19,4.69-13.84,4.7a21.45,21.45,0,0,1-9.39-2,15.94,15.94,0,0,1-9.31-12.36,16.15,16.15,0,0,1,.91-8.86,19.51,19.51,0,0,1,4.45-7Z" fill="#414042"/><path d="M200.74,110.58a5,5,0,0,0,3.67-1.53,5.29,5.29,0,0,0,1.61-3.67V59.25a4.25,4.25,0,0,0-1.56-3.34,5.48,5.48,0,0,0-3.71-1.36h-1l-.08-.82h16.72a34.53,34.53,0,0,0,5.56-.49,22.69,22.69,0,0,0,4.24-1V62.62h-.82V61.14a4.86,4.86,0,0,0-4.61-4.86h-9.39V81.74H227a4.12,4.12,0,0,0,2.8-1.24A3.91,3.91,0,0,0,231,77.62V76.47h.82v13H231V88.25a3.89,3.89,0,0,0-1.11-2.8,4,4,0,0,0-2.76-1.24H211.37v24.63h17.55q6.1,0,9.31-2.72a20.18,20.18,0,0,0,5.35-8.07h.82l-4.78,13.34h-40v-.82Z" fill="#414042"/><path d="M246.63,110.58A5,5,0,0,0,250.3,109a5.29,5.29,0,0,0,1.61-3.67V59.25a4.25,4.25,0,0,0-1.56-3.34,5.48,5.48,0,0,0-3.71-1.36h-1l-.08-.82h16.72a34.54,34.54,0,0,0,5.56-.49,22.67,22.67,0,0,0,4.24-1V62.62h-.82V61.14a4.86,4.86,0,0,0-4.61-4.86h-9.39V81.74h15.65a4.11,4.11,0,0,0,2.8-1.24,3.92,3.92,0,0,0,1.15-2.88V76.47h.82v13h-.82V88.25a3.89,3.89,0,0,0-1.11-2.8A4,4,0,0,0,273,84.21H257.26v24.63h17.55q6.09,0,9.31-2.72a20.16,20.16,0,0,0,5.35-8.07h.83l-4.78,13.34h-40v-.82Z" fill="#414042"/><path d="M350.19,54.55A4.91,4.91,0,0,0,346.65,56a5,5,0,0,0-1.56,3.5V102a67.83,67.83,0,0,0,.58,9.07l.16,1.48h-.74l-44.9-48v41a4.78,4.78,0,0,0,2.55,4.28,4.9,4.9,0,0,0,2.47.66h1.57v.82h-17v-.82h1.57a4.91,4.91,0,0,0,3.54-1.44,4.79,4.79,0,0,0,1.48-3.58V62.79a62.62,62.62,0,0,0-.58-9l-.17-1.32h.83l44.9,48V59.58A5.1,5.1,0,0,0,339.81,56a4.9,4.9,0,0,0-3.54-1.44H334.7v-.82h17v.82Z" fill="#414042"/><path d="M357.85,110.58a5,5,0,0,0,3.67-1.53,5.3,5.3,0,0,0,1.6-3.67V59.25a4.25,4.25,0,0,0-1.56-3.34,5.48,5.48,0,0,0-3.71-1.36h-1l-.08-.82h16.72a34.53,34.53,0,0,0,5.56-.49,22.74,22.74,0,0,0,4.24-1V62.62h-.83V61.14a4.86,4.86,0,0,0-4.61-4.86h-9.39V81.74h15.66a4.12,4.12,0,0,0,2.8-1.24,3.91,3.91,0,0,0,1.15-2.88V76.47h.83v13h-.83V88.25a3.88,3.88,0,0,0-1.11-2.8,4,4,0,0,0-2.76-1.24H368.48v24.63H386q6.1,0,9.31-2.72a20.2,20.2,0,0,0,5.36-8.07h.82l-4.78,13.34h-40v-.82Z" fill="#414042"/><path d="M394.76,70.12a9.18,9.18,0,0,1-1.15-11.25,10.82,10.82,0,0,1,4.53-3.71,16,16,0,0,1,7.08-1.52H439a35.88,35.88,0,0,0,5.64-.49,23,23,0,0,0,4.33-1V62.54l-.82-.08v-1.4a5,5,0,0,0-4.7-4.94H427.8v49.35a5,5,0,0,0,2.64,4.45,5.5,5.5,0,0,0,2.64.66h1.07v.82h-18v-.82h1.07a5.29,5.29,0,0,0,5.28-5V56.11H405.23q-6.59,0-9.56,4.2a7.5,7.5,0,0,0-1.56,4.49,10.69,10.69,0,0,0,1.32,4.9Z" fill="#414042"/></svg>
